<svg width="132" height="137" viewBox="0 0 132 137" fill="none" xmlns="http://www.w3.org/2000/svg">
<ellipse cx="49.9169" cy="49.9804" rx="49.9169" ry="49.9804" transform="matrix(0.988492 -0.151272 0.164127 0.986439 9.22168 23.0617)" fill="url(#paint0_linear_4341_3245)"/>
<path d="M9.00834 73.0441C11.8041 74.0397 16.4807 72.5864 16.1247 73.5059C15.7687 74.4253 11.8123 75.7174 9.01657 74.7218C6.22082 73.7262 1.77206 72.6409 2.12803 71.7215C2.48401 70.8021 6.21259 72.0485 9.00834 73.0441Z" fill="url(#paint1_linear_4341_3245)"/>
<path d="M122.449 78.0104C119.482 78.2979 115.951 81.5785 115.849 80.6027C115.746 79.6269 118.704 76.7953 121.671 76.5078C124.638 76.2203 129.131 75.3148 129.233 76.2906C129.336 77.2665 125.416 77.7229 122.449 78.0104Z" fill="url(#paint2_linear_4341_3245)"/>
<path d="M123.205 73.4834C120.275 74.0146 117.051 77.5742 116.861 76.6104C116.671 75.6467 119.365 72.5817 122.295 72.0506C125.225 71.5195 129.62 70.2469 129.81 71.2107C130 72.1744 126.135 72.9523 123.205 73.4834Z" fill="url(#paint3_linear_4341_3245)"/>
<path d="M123.831 69.1888C120.863 69.4763 117.333 72.7569 117.23 71.7811C117.127 70.8053 120.085 67.9737 123.053 67.6862C126.02 67.3986 130.512 66.4932 130.615 67.469C130.718 68.4448 126.798 68.9012 123.831 69.1888Z" fill="url(#paint4_linear_4341_3245)"/>
<path d="M111.471 28.4367C108.536 28.9435 105.281 32.4762 105.1 31.511C104.918 30.5457 107.639 27.5031 110.574 26.9963C113.509 26.4895 117.915 25.2534 118.096 26.2187C118.278 27.1839 114.406 27.9298 111.471 28.4367Z" fill="url(#paint5_linear_4341_3245)"/>
<path d="M108.711 26.0112C105.776 26.518 102.521 30.0507 102.34 29.0855C102.159 28.1202 104.879 25.0776 107.815 24.5708C110.75 24.064 115.155 22.8279 115.337 23.7931C115.518 24.7584 111.647 25.5043 108.711 26.0112Z" fill="url(#paint6_linear_4341_3245)"/>
<path d="M106.412 23.3644C103.477 23.8712 100.222 27.404 100.04 26.4387C99.8592 25.4735 102.58 22.4309 105.515 21.924C108.45 21.4172 112.856 20.1811 113.037 21.1464C113.218 22.1116 109.347 22.8576 106.412 23.3644Z" fill="url(#paint7_linear_4341_3245)"/>
<path d="M103.424 20.9379C100.489 21.4447 97.2339 24.9775 97.0527 24.0122C96.8715 23.047 99.5924 20.0044 102.527 19.4975C105.462 18.9907 109.868 17.7546 110.049 18.7199C110.231 19.6851 106.359 20.431 103.424 20.9379Z" fill="url(#paint8_linear_4341_3245)"/>
<path d="M100.433 18.7324C97.4976 19.2392 94.2422 22.772 94.061 21.8067C93.8798 20.8415 96.6007 17.7988 99.5357 17.292C102.471 16.7852 106.877 15.5491 107.058 16.5144C107.239 17.4796 103.368 18.2255 100.433 18.7324Z" fill="url(#paint9_linear_4341_3245)"/>
<path d="M97.2265 16.5677C94.3722 17.3962 91.5639 21.2659 91.2677 20.3272C90.9714 19.3885 93.3077 16.0648 96.1621 15.2363C99.0165 14.4078 103.244 12.692 103.54 13.6307C103.836 14.5694 100.081 15.7392 97.2265 16.5677Z" fill="url(#paint10_linear_4341_3245)"/>
<path d="M94.1695 14.4947C91.4166 15.5948 89.0292 19.7161 88.6358 18.8107C88.2425 17.9054 90.2178 14.373 92.9706 13.2729C95.7235 12.1729 99.7492 10.0574 100.143 10.9627C100.536 11.868 96.9223 13.3946 94.1695 14.4947Z" fill="url(#paint11_linear_4341_3245)"/>
<path d="M90.7488 12.9967C88.1773 14.4452 86.3957 18.8393 85.8778 17.9937C85.3598 17.148 86.8165 13.391 89.388 11.9425C91.9595 10.4939 95.6483 7.87365 96.1662 8.71933C96.6841 9.56502 93.3203 11.5482 90.7488 12.9967Z" fill="url(#paint12_linear_4341_3245)"/>
<path d="M87.2211 11.4132C84.7084 12.9537 83.1009 17.4091 82.5501 16.5828C81.9993 15.7564 83.3071 11.9494 85.8198 10.4089C88.3326 8.86837 91.9156 6.11648 92.4665 6.94283C93.0173 7.76918 89.7338 9.87265 87.2211 11.4132Z" fill="url(#paint13_linear_4341_3245)"/>
<path d="M83.7555 10.0781C81.4097 11.8442 80.2584 16.4277 79.6269 15.6562C78.9954 14.8847 79.9138 10.9744 82.2596 9.20832C84.6054 7.44228 87.8946 4.37137 88.5261 5.14284C89.1576 5.9143 86.1013 8.31207 83.7555 10.0781Z" fill="url(#paint14_linear_4341_3245)"/>
<path d="M79.9213 8.96404C77.6736 10.8438 76.7703 15.4781 76.0982 14.7389C75.4261 13.9997 76.1329 10.0491 78.3806 8.1694C80.6284 6.28967 83.748 3.06015 84.4202 3.79936C85.0923 4.53856 82.169 7.08431 79.9213 8.96404Z" fill="url(#paint15_linear_4341_3245)"/>
<path d="M75.9251 8.19533C73.8664 10.2647 73.4097 14.9589 72.6698 14.2819C71.9299 13.6048 72.2563 9.60874 74.315 7.53941C76.3736 5.47008 79.1717 1.98002 79.9116 2.65705C80.6515 3.33409 77.9837 6.126 75.9251 8.19533Z" fill="url(#paint16_linear_4341_3245)"/>
<path d="M71.6347 7.82491C69.7893 10.0716 69.7973 14.7863 68.994 14.1793C68.1907 13.5724 68.1217 9.56463 69.9672 7.31792C71.8127 5.0712 74.2541 1.34307 75.0574 1.94999C75.8607 2.55691 73.4802 5.57819 71.6347 7.82491Z" fill="url(#paint17_linear_4341_3245)"/>
<path d="M67.4434 7.54736C65.7496 9.90135 66.068 14.6061 65.2263 14.049C64.3847 13.492 64.0519 9.49636 65.7458 7.14236C67.4397 4.78837 69.6308 0.919838 70.4725 1.4769C71.3142 2.03395 69.1373 5.19337 67.4434 7.54736Z" fill="url(#paint18_linear_4341_3245)"/>
<path d="M63.3298 7.64478C61.7437 10.0668 62.2741 14.754 61.4081 14.2323C60.542 13.7107 60.0294 9.73264 61.6155 7.31058C63.2016 4.88852 65.2162 0.932712 66.0822 1.45433C66.9482 1.97595 64.9159 5.22272 63.3298 7.64478Z" fill="url(#paint19_linear_4341_3245)"/>
<path d="M59.3507 7.60743C58.0332 10.1733 59.0643 14.7831 58.1468 14.3498C57.2294 13.9165 56.2922 10.0103 57.6097 7.44438C58.9272 4.8785 60.5061 0.744707 61.4235 1.17799C62.341 1.61127 60.6682 5.04155 59.3507 7.60743Z" fill="url(#paint20_linear_4341_3245)"/>
<path d="M124.274 64.9302C121.315 65.2856 117.867 68.6462 117.74 67.6731C117.613 66.6999 120.5 63.8013 123.459 63.4459C126.418 63.0904 130.886 62.0823 131.014 63.0554C131.141 64.0286 127.233 64.5747 124.274 64.9302Z" fill="url(#paint21_linear_4341_3245)"/>
<path d="M123.952 61.187C120.993 61.5424 117.545 64.903 117.418 63.9299C117.291 62.9567 120.178 60.0581 123.137 59.7027C126.096 59.3472 130.565 58.3391 130.692 59.3122C130.819 60.2854 126.912 60.8315 123.952 61.187Z" fill="url(#paint22_linear_4341_3245)"/>
<path d="M124.089 57.4334C121.129 57.7888 117.682 61.1494 117.554 60.1763C117.427 59.2031 120.314 56.3045 123.273 55.9491C126.232 55.5936 130.701 54.5855 130.828 55.5586C130.955 56.5318 127.048 57.0779 124.089 57.4334Z" fill="url(#paint23_linear_4341_3245)"/>
<path d="M123.623 53.4618C120.664 53.8172 117.216 57.1778 117.089 56.2046C116.962 55.2315 119.849 52.3329 122.808 51.9774C125.767 51.622 130.236 50.6138 130.363 51.587C130.49 52.5602 126.582 53.1063 123.623 53.4618Z" fill="url(#paint24_linear_4341_3245)"/>
<path d="M122.932 49.4923C119.973 49.8477 116.525 53.2083 116.398 52.2351C116.271 51.262 119.158 48.3634 122.117 48.0079C125.076 47.6525 129.545 46.6443 129.672 47.6175C129.799 48.5907 125.892 49.1368 122.932 49.4923Z" fill="url(#paint25_linear_4341_3245)"/>
<path d="M121.74 46.2364C118.78 46.5918 115.332 49.9524 115.205 48.9792C115.078 48.0061 117.965 45.1075 120.924 44.752C123.883 44.3966 128.352 43.3884 128.479 44.3616C128.606 45.3348 124.699 45.8809 121.74 46.2364Z" fill="url(#paint26_linear_4341_3245)"/>
<path d="M120.175 43.3163C117.215 43.6717 113.768 47.0323 113.64 46.0591C113.513 45.086 116.4 42.1874 119.359 41.8319C122.318 41.4765 126.787 40.4683 126.914 41.4415C127.041 42.4147 123.134 42.9608 120.175 43.3163Z" fill="url(#paint27_linear_4341_3245)"/>
<path d="M119.05 39.8996C116.091 40.2551 112.643 43.6157 112.516 42.6425C112.389 41.6693 115.276 38.7707 118.235 38.4153C121.194 38.0598 125.662 37.0517 125.789 38.0248C125.917 38.998 122.009 39.5442 119.05 39.8996Z" fill="url(#paint28_linear_4341_3245)"/>
<path d="M116.915 37.302C113.956 37.6575 110.508 41.0181 110.381 40.0449C110.254 39.0717 113.14 36.1731 116.099 35.8177C119.059 35.4622 123.527 34.4541 123.654 35.4272C123.781 36.4004 119.874 36.9466 116.915 37.302Z" fill="url(#paint29_linear_4341_3245)"/>
<path d="M115.344 34.0533C112.385 34.4087 108.937 37.7693 108.81 36.7961C108.683 35.823 111.57 32.9244 114.529 32.5689C117.488 32.2135 121.956 31.2053 122.083 32.1785C122.21 33.1517 118.303 33.6978 115.344 34.0533Z" fill="url(#paint30_linear_4341_3245)"/>
<path d="M113.963 31.1865C111.004 31.542 107.556 34.9026 107.428 33.9294C107.301 32.9562 110.188 30.0577 113.147 29.7022C116.106 29.3467 120.575 28.3386 120.702 29.3118C120.829 30.2849 116.922 30.8311 113.963 31.1865Z" fill="url(#paint31_linear_4341_3245)"/>
<path d="M14.5121 36.2286C16.7249 38.1461 21.844 38.2297 21.0867 39.0335C20.3293 39.8373 15.9701 39.8293 13.7573 37.9118C11.5446 35.9943 7.79667 33.4429 8.55401 32.639C9.31135 31.8352 12.2994 34.3111 14.5121 36.2286Z" fill="url(#paint32_linear_4341_3245)"/>
<path d="M13.4749 40.2562C15.9867 41.7981 20.8784 41.3296 20.3271 42.1557C19.7758 42.9817 15.6235 43.4392 13.1117 41.8974C10.5999 40.3555 6.49261 38.3896 7.04391 37.5636C7.59521 36.7375 10.9631 38.7144 13.4749 40.2562Z" fill="url(#paint33_linear_4341_3245)"/>
<path d="M11.8082 44.0326C14.4523 45.3554 19.2816 44.4741 18.8086 45.3437C18.3356 46.2132 14.2418 47.0209 11.5977 45.6981C8.95366 44.3752 4.68121 42.7652 5.15421 41.8957C5.62721 41.0261 9.16412 42.7097 11.8082 44.0326Z" fill="url(#paint34_linear_4341_3245)"/>
<path d="M10.5801 48.0126C13.3759 49.0081 18.0525 47.5549 17.6965 48.4743C17.3405 49.3937 13.3841 50.6858 10.5883 49.6902C7.7926 48.6946 3.34383 47.6094 3.69981 46.6899C4.05579 45.7705 7.78436 47.017 10.5801 48.0126Z" fill="url(#paint35_linear_4341_3245)"/>
<path d="M9.88969 51.5418C12.6854 52.5374 17.362 51.0841 17.0061 52.0036C16.6501 52.923 12.6937 54.2151 9.89792 53.2195C7.10217 52.2239 2.6534 51.1386 3.00938 50.2192C3.36536 49.2998 7.09393 50.5462 9.88969 51.5418Z" fill="url(#paint36_linear_4341_3245)"/>
<path d="M9.19828 55.5113C11.994 56.5069 16.6706 55.0536 16.3147 55.9731C15.9587 56.8925 12.0023 58.1846 9.20651 57.189C6.41076 56.1934 1.962 55.1082 2.31797 54.1887C2.67395 53.2693 6.40253 54.5158 9.19828 55.5113Z" fill="url(#paint37_linear_4341_3245)"/>
<path d="M8.73978 59.2608C11.5355 60.2563 16.2121 58.8031 15.8562 59.7225C15.5002 60.6419 11.5438 61.934 8.74802 60.9384C5.95226 59.9428 1.5035 58.8576 1.85948 57.9381C2.21546 57.0187 5.94403 58.2652 8.73978 59.2608Z" fill="url(#paint38_linear_4341_3245)"/>
<path d="M8.73978 62.7901C11.5355 63.7857 16.2121 62.3324 15.8562 63.2519C15.5002 64.1713 11.5438 65.4634 8.74802 64.4678C5.95226 63.4722 1.5035 62.3869 1.85948 61.4675C2.21546 60.5481 5.94403 61.7945 8.73978 62.7901Z" fill="url(#paint39_linear_4341_3245)"/>
<path d="M9.05765 65.9418C11.8534 66.9373 16.53 65.4841 16.174 66.4035C15.8181 67.3229 11.8616 68.615 9.06589 67.6194C6.27013 66.6238 1.82137 65.5386 2.17735 64.6191C2.53333 63.6997 6.2619 64.9462 9.05765 65.9418Z" fill="url(#paint40_linear_4341_3245)"/>
<path d="M8.96928 69.8476C11.765 70.8432 16.4416 69.3899 16.0857 70.3093C15.7297 71.2288 11.7733 72.5208 8.97751 71.5252C6.18176 70.5297 1.73299 69.4444 2.08897 68.525C2.44495 67.6055 6.17352 68.852 8.96928 69.8476Z" fill="url(#paint41_linear_4341_3245)"/>
<path d="M55.3071 7.68689C54.1686 10.3304 55.514 14.8651 54.5688 14.4907C53.6235 14.1163 52.4202 10.2777 53.5586 7.63416C54.697 4.99064 55.9887 0.766098 56.9339 1.1405C57.8791 1.51489 56.4455 5.04338 55.3071 7.68689Z" fill="url(#paint42_linear_4341_3245)"/>
<path d="M51.2931 8.62635C50.7471 11.4381 53.0378 15.6096 52.0324 15.43C51.0271 15.2504 49.0248 11.732 49.5708 8.92026C50.1169 6.10851 50.4732 1.71937 51.4785 1.89895C52.4839 2.07854 51.8392 5.81459 51.2931 8.62635Z" fill="url(#paint43_linear_4341_3245)"/>
<path d="M47.3574 9.41925C47.1352 12.2714 49.8877 16.1777 48.8679 16.1046C47.8481 16.0315 45.4567 12.7441 45.679 9.89198C45.9012 7.03983 45.755 2.63965 46.7748 2.71274C47.7947 2.78584 47.5797 6.5671 47.3574 9.41925Z" fill="url(#paint44_linear_4341_3245)"/>
<path d="M43.5193 11.2338C43.7703 14.0838 47.1325 17.5233 46.1134 17.6059C45.0944 17.6884 42.1909 14.8052 41.9399 11.9552C41.6889 9.10527 40.8188 4.78267 41.8378 4.70013C42.8569 4.61759 43.2683 8.38385 43.5193 11.2338Z" fill="url(#paint45_linear_4341_3245)"/>
<path d="M39.6038 12.9044C40.1595 15.7144 43.8732 18.8035 42.8685 18.9863C41.8637 19.169 38.666 16.588 38.1103 13.7779C37.5546 10.9679 36.2249 6.75425 37.2296 6.5715C38.2344 6.38874 39.0481 10.0943 39.6038 12.9044Z" fill="url(#paint46_linear_4341_3245)"/>
<path d="M35.7745 14.2764C36.5772 17.031 40.5512 19.8063 39.5662 20.0703C38.5813 20.3343 35.1665 18.0231 34.3638 15.2685C33.5612 12.514 31.8629 8.42389 32.8478 8.15992C33.8328 7.89595 34.9718 11.5218 35.7745 14.2764Z" fill="url(#paint47_linear_4341_3245)"/>
<path d="M32.5868 16.2623C33.4055 19.0126 37.3955 21.7666 36.4122 22.0359C35.4288 22.3051 32.0006 20.0122 31.182 17.262C30.3633 14.5117 28.6413 10.4308 29.6247 10.1616C30.6081 9.89234 31.7682 13.5121 32.5868 16.2623Z" fill="url(#paint48_linear_4341_3245)"/>
<path d="M28.9974 18.4607C30.0744 21.1278 34.3099 23.5212 33.3562 23.8753C32.4026 24.2295 28.7705 22.2463 27.6935 19.5792C26.6166 16.912 24.5134 12.9989 25.4671 12.6447C26.4207 12.2905 27.9205 15.7936 28.9974 18.4607Z" fill="url(#paint49_linear_4341_3245)"/>
<path d="M26.2391 21.1073C27.3161 23.7745 31.5516 26.1678 30.5979 26.522C29.6443 26.8762 26.0122 24.8929 24.9352 22.2258C23.8583 19.5587 21.7551 15.6455 22.7088 15.2913C23.6624 14.9371 25.1622 18.4402 26.2391 21.1073Z" fill="url(#paint50_linear_4341_3245)"/>
<path d="M23.7089 23.9742C24.7858 26.6413 29.0213 29.0347 28.0676 29.3889C27.114 29.743 23.4819 27.7598 22.405 25.0927C21.328 22.4256 19.2249 18.5124 20.1785 18.1582C21.1322 17.804 22.6319 21.3071 23.7089 23.9742Z" fill="url(#paint51_linear_4341_3245)"/>
<path d="M21.871 26.8422C22.9479 29.5093 27.1834 31.9026 26.2298 32.2568C25.2761 32.611 21.644 30.6277 20.5671 27.9606C19.4901 25.2935 17.387 21.3803 18.3406 21.0261C19.2943 20.6719 20.794 24.175 21.871 26.8422Z" fill="url(#paint52_linear_4341_3245)"/>
<path d="M19.5509 29.8298C20.9556 32.3528 25.4612 34.2385 24.5591 34.7005C23.6569 35.1624 19.8019 33.6139 18.3973 31.0909C16.9926 28.5679 14.4125 24.9267 15.3147 24.4648C16.2168 24.0028 18.1463 27.3068 19.5509 29.8298Z" fill="url(#paint53_linear_4341_3245)"/>
<path d="M16.5283 32.7107C18.0677 35.1604 23.3951 36.3996 22.2758 37.0466C21.1564 37.6936 16.7407 36.1039 15.2014 33.6542C13.662 31.2046 10.6255 28.3626 11.7448 27.7156C12.8642 27.0686 14.9889 30.2611 16.5283 32.7107Z" fill="url(#paint54_linear_4341_3245)"/>
<path d="M47.8575 29.1695C47.9243 28.5818 48.518 28.2066 49.0769 28.4001C60.639 32.4032 63.0297 36.1868 60.6006 45.2724C60.4942 45.6703 60.1255 45.9471 59.7136 45.9471C59.3981 45.9471 59.1019 46.111 58.9368 46.3799C58.7334 46.7114 58.3345 46.8758 57.9565 46.784C47.5975 44.2668 46.633 39.9523 47.8575 29.1695Z" fill="#7BDB01"/>
<path d="M40.5418 53.8435C40.4418 53.2618 40.9105 52.7339 41.5001 52.761C57.4156 53.4935 61.1587 57.5598 61.275 69.8674C61.277 70.0805 61.1189 70.2665 60.9075 70.2941L60.6912 70.3222C60.4948 70.3478 60.3875 70.565 60.4866 70.7365C60.5898 70.9152 60.4614 71.1404 60.2553 71.1515C46.3295 71.9023 42.9085 67.6065 40.5418 53.8435Z" fill="#7BDB01"/>
<path d="M85.3807 27.8296C85.9487 27.5991 86.5867 27.979 86.653 28.5885C88.6407 46.8662 83.3666 52.8795 67.9019 56.7087C67.7591 56.7441 67.629 56.609 67.6758 56.4695C67.7457 56.2613 67.4617 56.124 67.3419 56.308L67.2842 56.3967C67.188 56.5447 66.96 56.4976 66.9212 56.3254C63.4135 40.7598 68.443 34.7041 85.3807 27.8296Z" fill="#7BDB01"/>
<path d="M71.8668 87.7379C72.8445 86.5077 74.1827 86.9993 75.7527 86.9322C76.0712 86.9186 76.4584 86.9025 76.9289 86.8881C80.5985 86.3184 79.056 87.6338 81.4879 89.7535C81.5982 89.8497 81.7042 89.9578 81.7951 90.0724C84.8358 93.9083 87.2401 94.4093 91.0418 95.7377C91.3434 95.8431 91.545 96.1289 91.545 96.4485C91.545 96.8665 91.2061 97.2054 90.7881 97.2054H51.3513C50.0707 97.2054 49.3711 95.7118 50.1909 94.728C50.2475 94.6602 50.3072 94.5962 50.3825 94.5501C51.8433 93.6543 59.123 93.8871 64.6183 92.9542C64.8009 92.9232 64.9787 92.8643 65.1445 92.7817C68.5193 91.1013 70.3004 89.709 71.8668 87.7379Z" fill="#BA5400"/>
<path d="M60.5472 84.6042C61.3861 83.2754 63.1102 83.5505 64.2691 84.6118C65.0461 85.3233 66.1898 85.7108 68.2381 85.6481C71.9088 85.0783 71.1872 87.629 73.6579 89.8033C73.7677 89.9 73.8731 90.0074 73.964 90.1221C77.0047 93.9579 79.4091 94.459 83.2107 95.7873C83.5124 95.8927 83.714 96.1786 83.714 96.4981C83.714 96.9161 83.3751 97.255 82.957 97.255H47.6041C45.6009 97.255 44.8905 94.6029 46.6254 93.6016C46.7257 93.5437 46.8213 93.4771 46.9085 93.4009C47.9551 92.4864 48.1992 91.9445 53.3832 90.9996C53.5654 90.9664 53.7485 90.9075 53.9136 90.8237C57.3644 89.0729 59.0241 87.0167 60.5472 84.6042Z" fill="#EB7900"/>
<path d="M58.4806 37.6268C58.6392 37.8016 58.7332 38.0327 58.6956 38.2658C58.4591 39.7331 58.6819 40.6782 58.7586 42.2096C58.763 42.298 58.7863 42.3864 58.826 42.4655C62.2083 49.1908 63.6135 53.5352 64.5512 59.5142C64.6624 60.2231 65.7696 60.2577 65.9234 59.5568C66.662 56.1909 67.4796 53.4999 68.839 49.6449C68.8728 49.5491 68.8833 49.4452 68.8685 49.3447L68.2407 45.0759C68.2245 44.9655 68.2362 44.8516 68.2853 44.7513C68.4842 44.3451 68.714 44.2296 69.158 44.3052C69.3335 44.3351 69.4766 44.4582 69.5561 44.6173L70.0495 45.6041C70.2594 46.0239 70.8401 46.0705 71.1143 45.6897L72.9414 43.152C77.116 38.2483 74.4991 42.4001 74.2939 43.7208C74.2698 43.8758 74.249 44.0381 74.1723 44.1751L71.1067 49.6494C70.8581 50.0933 71.2166 50.6322 71.7221 50.5744L74.7986 50.2228C75.0612 50.1928 75.3349 50.3264 75.3915 50.5846C75.4319 50.7693 75.4185 50.9371 75.348 51.1348C75.2889 51.3008 75.1398 51.4143 74.9698 51.4607L70.8541 52.5832C70.8057 52.5964 70.7586 52.6153 70.7152 52.6405C69.7824 53.181 69.4454 53.8669 68.9114 55.1204C68.8979 55.152 68.8868 55.1858 68.8787 55.2192C67.4421 61.1728 66.7959 64.4971 66.3257 70.29L66.7232 87.7814C66.7279 87.9882 66.6328 88.1889 66.456 88.2961C66.0939 88.5157 65.801 88.5674 65.3592 88.2901C65.1957 88.1875 65.1121 87.9968 65.1141 87.8038C65.1749 81.9679 64.8479 79.0099 62.9503 75.2855C61.0422 71.904 59.0349 68.6698 57.4147 68.6698C55.7945 68.6698 54.1744 69.3448 53.4993 69.2099C52.8242 69.075 51.6091 68.776 52.8242 68.1298C54.0393 67.4835 54.5794 66.9146 55.9295 66.9146C57.2318 66.9146 51.9028 63.5255 51.5226 63.2847C51.5072 63.275 51.4926 63.2669 51.4766 63.2583C50.2935 62.625 50.9446 61.1481 52.0414 61.7861C52.4875 62.0456 53.0975 62.4697 53.6662 62.883C54.1605 63.2422 54.9385 62.7357 54.9328 62.1247C54.9293 61.7623 54.9513 61.3968 54.972 60.9724C54.9804 60.8012 55.0548 60.636 55.1944 60.5366C55.4939 60.3231 55.7503 60.264 56.1149 60.3362C56.3376 60.3804 56.4951 60.5725 56.5363 60.7958L57.3752 65.3498C57.4008 65.4888 57.4736 65.6156 57.5799 65.7087C59.788 67.642 61.1856 69.1429 62.8025 71.6659C63.158 72.2205 64.0488 71.9479 64.0036 71.2907C63.3246 61.4028 61.961 55.2031 57.551 45.2149C57.4669 45.0245 57.2916 44.8858 57.0865 44.8501L54.4835 44.3974C54.3696 44.3776 54.2619 44.3282 54.1805 44.2463C53.8619 43.9257 53.8355 43.6891 54.1352 43.3362C54.2404 43.2123 54.4003 43.152 54.5628 43.152H55.4734C55.934 43.152 56.2359 42.6701 56.035 42.2556L54.3882 38.8591C54.3367 38.7529 54.3195 38.6337 54.3004 38.5173C54.18 37.7837 53.2102 36.3341 55.1368 37.7963C55.2126 37.8538 55.2763 37.9308 55.3183 38.0161L56.6628 40.747C56.9546 41.3397 57.8469 41.132 57.8469 40.4713V38.1803C57.8469 37.9942 57.933 37.8203 58.0666 37.6907C58.398 37.3692 58.2452 37.3672 58.4806 37.6268Z" fill="#549C00"/>
<path d="M77.9992 63.2599L76.6237 63.9804C76.0373 64.2875 75.9462 65.0897 76.4488 65.5205L78.1507 66.9792C78.2068 67.0273 78.2571 67.0819 78.3004 67.1419L79.1825 68.3633C79.5698 68.8996 80.3761 68.8759 80.7313 68.3177L81.7689 66.6871C81.8425 66.5715 81.9405 66.4735 82.0561 66.3999L83.456 65.5091C84.0699 65.1184 84.0229 64.2074 83.372 63.8819L82.1125 63.2522C81.9608 63.1763 81.8325 63.0606 81.7414 62.9175L80.8098 61.4535C80.4347 60.864 79.5694 60.8783 79.214 61.4798L78.3708 62.9068C78.2822 63.0568 78.1535 63.179 77.9992 63.2599Z" fill="#FFE4B2"/>
<path d="M38.1198 39.757L37.3452 40.2003C36.7985 40.5131 36.7105 41.2657 37.1702 41.6962L38.271 42.727C38.3244 42.777 38.3717 42.833 38.4121 42.894L38.824 43.5171C39.2067 44.0962 40.0645 44.0719 40.4139 43.4721L40.955 42.543C41.0237 42.425 41.1175 42.3235 41.2296 42.2456L42.0227 41.6942C42.5939 41.297 42.5477 40.4375 41.937 40.1039L41.2882 39.7495C41.1385 39.6677 41.014 39.5465 40.9281 39.3991L40.4944 38.6545C40.1266 38.0232 39.2096 38.0377 38.862 38.6804L38.4783 39.3898C38.3953 39.5432 38.2712 39.6704 38.1198 39.757Z" fill="#FFE4B2"/>
<path d="M130.012 82.4309C130.012 112.883 95.2849 135.143 61.5016 135.143C27.7184 135.143 0.767578 117.073 0.767578 86.6214C0.767578 56.1694 52.7446 96.9874 86.5278 96.9874C120.311 96.9874 130.012 51.9789 130.012 82.4309Z" fill="url(#paint55_linear_4341_3245)"/>
<path d="M128.544 86.4619C128.544 114.585 94.6862 135.143 61.7484 135.143C28.8106 135.143 2.53418 118.455 2.53418 90.332C2.53418 62.2085 53.2105 99.9053 86.1483 99.9053C119.086 99.9053 128.544 58.3384 128.544 86.4619Z" fill="#1D6923"/>
<path d="M127.566 89.4015C127.566 116.464 94.2337 136.246 61.8075 136.246C29.3814 136.246 3.51318 120.188 3.51318 93.1255C3.51318 66.0633 53.4023 102.338 85.8284 102.338C118.255 102.338 127.566 62.3393 127.566 89.4015Z" fill="url(#paint56_linear_4341_3245)"/>
<defs>
<linearGradient id="paint0_linear_4341_3245" x1="26.7975" y1="16.3094" x2="49.9716" y2="99.9457" gradientUnits="userSpaceOnUse">
<stop offset="0.0200484" stop-color="#C29217"/>
<stop offset="0.389877" stop-color="#FFE605" stop-opacity="0.742865"/>
<stop offset="0.666667" stop-color="#C29217"/>
<stop offset="0.855158" stop-color="#FFE600"/>
<stop offset="1" stop-color="#FFE712" stop-opacity="0"/>
</linearGradient>
<linearGradient id="paint1_linear_4341_3245" x1="7.58888" y1="74.0995" x2="14.7053" y2="71.612" gradientUnits="userSpaceOnUse">
<stop offset="0.0200484" stop-color="#C29217"/>
<stop offset="0.389877" stop-color="#FFE605" stop-opacity="0.742865"/>
<stop offset="0.666667" stop-color="#C29217"/>
<stop offset="0.855158" stop-color="#FFE600"/>
<stop offset="1" stop-color="#FFE712" stop-opacity="0"/>
</linearGradient>
<linearGradient id="paint2_linear_4341_3245" x1="123.239" y1="76.4632" x2="118.077" y2="81.7845" gradientUnits="userSpaceOnUse">
<stop offset="0.0200484" stop-color="#C29217"/>
<stop offset="0.389877" stop-color="#FFE605" stop-opacity="0.742865"/>
<stop offset="0.666667" stop-color="#C29217"/>
<stop offset="0.855158" stop-color="#FFE600"/>
<stop offset="1" stop-color="#FFE712" stop-opacity="0"/>
</linearGradient>
<linearGradient id="paint3_linear_4341_3245" x1="123.853" y1="71.8769" x2="119.182" y2="77.6002" gradientUnits="userSpaceOnUse">
<stop offset="0.0200484" stop-color="#C29217"/>
<stop offset="0.389877" stop-color="#FFE605" stop-opacity="0.742865"/>
<stop offset="0.666667" stop-color="#C29217"/>
<stop offset="0.855158" stop-color="#FFE600"/>
<stop offset="1" stop-color="#FFE712" stop-opacity="0"/>
</linearGradient>
<linearGradient id="paint4_linear_4341_3245" x1="124.62" y1="67.6416" x2="119.458" y2="72.9629" gradientUnits="userSpaceOnUse">
<stop offset="0.0200484" stop-color="#C29217"/>
<stop offset="0.389877" stop-color="#FFE605" stop-opacity="0.742865"/>
<stop offset="0.666667" stop-color="#C29217"/>
<stop offset="0.855158" stop-color="#FFE600"/>
<stop offset="1" stop-color="#FFE712" stop-opacity="0"/>
</linearGradient>
<linearGradient id="paint5_linear_4341_3245" x1="112.134" y1="26.8355" x2="107.412" y2="32.5206" gradientUnits="userSpaceOnUse">
<stop offset="0.0200484" stop-color="#C29217"/>
<stop offset="0.389877" stop-color="#FFE605" stop-opacity="0.742865"/>
<stop offset="0.666667" stop-color="#C29217"/>
<stop offset="0.855158" stop-color="#FFE600"/>
<stop offset="1" stop-color="#FFE712" stop-opacity="0"/>
</linearGradient>
<linearGradient id="paint6_linear_4341_3245" x1="109.374" y1="24.41" x2="104.653" y2="30.0951" gradientUnits="userSpaceOnUse">
<stop offset="0.0200484" stop-color="#C29217"/>
<stop offset="0.389877" stop-color="#FFE605" stop-opacity="0.742865"/>
<stop offset="0.666667" stop-color="#C29217"/>
<stop offset="0.855158" stop-color="#FFE600"/>
<stop offset="1" stop-color="#FFE712" stop-opacity="0"/>
</linearGradient>
<linearGradient id="paint7_linear_4341_3245" x1="107.074" y1="21.7633" x2="102.353" y2="27.4483" gradientUnits="userSpaceOnUse">
<stop offset="0.0200484" stop-color="#C29217"/>
<stop offset="0.389877" stop-color="#FFE605" stop-opacity="0.742865"/>
<stop offset="0.666667" stop-color="#C29217"/>
<stop offset="0.855158" stop-color="#FFE600"/>
<stop offset="1" stop-color="#FFE712" stop-opacity="0"/>
</linearGradient>
<linearGradient id="paint8_linear_4341_3245" x1="104.087" y1="19.3368" x2="99.3655" y2="25.0218" gradientUnits="userSpaceOnUse">
<stop offset="0.0200484" stop-color="#C29217"/>
<stop offset="0.389877" stop-color="#FFE605" stop-opacity="0.742865"/>
<stop offset="0.666667" stop-color="#C29217"/>
<stop offset="0.855158" stop-color="#FFE600"/>
<stop offset="1" stop-color="#FFE712" stop-opacity="0"/>
</linearGradient>
<linearGradient id="paint9_linear_4341_3245" x1="101.095" y1="17.1312" x2="96.3738" y2="22.8163" gradientUnits="userSpaceOnUse">
<stop offset="0.0200484" stop-color="#C29217"/>
<stop offset="0.389877" stop-color="#FFE605" stop-opacity="0.742865"/>
<stop offset="0.666667" stop-color="#C29217"/>
<stop offset="0.855158" stop-color="#FFE600"/>
<stop offset="1" stop-color="#FFE712" stop-opacity="0"/>
</linearGradient>
<linearGradient id="paint10_linear_4341_3245" x1="97.6916" y1="14.9039" x2="93.669" y2="21.0623" gradientUnits="userSpaceOnUse">
<stop offset="0.0200484" stop-color="#C29217"/>
<stop offset="0.389877" stop-color="#FFE605" stop-opacity="0.742865"/>
<stop offset="0.666667" stop-color="#C29217"/>
<stop offset="0.855158" stop-color="#FFE600"/>
<stop offset="1" stop-color="#FFE712" stop-opacity="0"/>
</linearGradient>
<linearGradient id="paint11_linear_4341_3245" x1="94.4574" y1="12.7945" x2="91.0752" y2="19.2961" gradientUnits="userSpaceOnUse">
<stop offset="0.0200484" stop-color="#C29217"/>
<stop offset="0.389877" stop-color="#FFE605" stop-opacity="0.742865"/>
<stop offset="0.666667" stop-color="#C29217"/>
<stop offset="0.855158" stop-color="#FFE600"/>
<stop offset="1" stop-color="#FFE712" stop-opacity="0"/>
</linearGradient>
<linearGradient id="paint12_linear_4341_3245" x1="90.7932" y1="11.2747" x2="88.3102" y2="18.1376" gradientUnits="userSpaceOnUse">
<stop offset="0.0200484" stop-color="#C29217"/>
<stop offset="0.389877" stop-color="#FFE605" stop-opacity="0.742865"/>
<stop offset="0.666667" stop-color="#C29217"/>
<stop offset="0.855158" stop-color="#FFE600"/>
<stop offset="1" stop-color="#FFE712" stop-opacity="0"/>
</linearGradient>
<linearGradient id="paint13_linear_4341_3245" x1="87.1978" y1="9.6908" x2="84.9692" y2="16.633" gradientUnits="userSpaceOnUse">
<stop offset="0.0200484" stop-color="#C29217"/>
<stop offset="0.389877" stop-color="#FFE605" stop-opacity="0.742865"/>
<stop offset="0.666667" stop-color="#C29217"/>
<stop offset="0.855158" stop-color="#FFE600"/>
<stop offset="1" stop-color="#FFE712" stop-opacity="0"/>
</linearGradient>
<linearGradient id="paint14_linear_4341_3245" x1="83.5588" y1="8.36597" x2="81.99" y2="15.4712" gradientUnits="userSpaceOnUse">
<stop offset="0.0200484" stop-color="#C29217"/>
<stop offset="0.389877" stop-color="#FFE605" stop-opacity="0.742865"/>
<stop offset="0.666667" stop-color="#C29217"/>
<stop offset="0.855158" stop-color="#FFE600"/>
<stop offset="1" stop-color="#FFE712" stop-opacity="0"/>
</linearGradient>
<linearGradient id="paint15_linear_4341_3245" x1="79.6328" y1="7.2639" x2="78.4195" y2="14.4324" gradientUnits="userSpaceOnUse">
<stop offset="0.0200484" stop-color="#C29217"/>
<stop offset="0.389877" stop-color="#FFE605" stop-opacity="0.742865"/>
<stop offset="0.666667" stop-color="#C29217"/>
<stop offset="0.855158" stop-color="#FFE600"/>
<stop offset="1" stop-color="#FFE712" stop-opacity="0"/>
</linearGradient>
<linearGradient id="paint16_linear_4341_3245" x1="75.4753" y1="6.5277" x2="74.8982" y2="13.7684" gradientUnits="userSpaceOnUse">
<stop offset="0.0200484" stop-color="#C29217"/>
<stop offset="0.389877" stop-color="#FFE605" stop-opacity="0.742865"/>
<stop offset="0.666667" stop-color="#C29217"/>
<stop offset="0.855158" stop-color="#FFE600"/>
<stop offset="1" stop-color="#FFE712" stop-opacity="0"/>
</linearGradient>
<linearGradient id="paint17_linear_4341_3245" x1="71.0226" y1="6.20552" x2="71.1045" y2="13.4667" gradientUnits="userSpaceOnUse">
<stop offset="0.0200484" stop-color="#C29217"/>
<stop offset="0.389877" stop-color="#FFE605" stop-opacity="0.742865"/>
<stop offset="0.666667" stop-color="#C29217"/>
<stop offset="0.855158" stop-color="#FFE600"/>
<stop offset="1" stop-color="#FFE712" stop-opacity="0"/>
</linearGradient>
<linearGradient id="paint18_linear_4341_3245" x1="66.7259" y1="5.96828" x2="67.2476" y2="13.2128" gradientUnits="userSpaceOnUse">
<stop offset="0.0200484" stop-color="#C29217"/>
<stop offset="0.389877" stop-color="#FFE605" stop-opacity="0.742865"/>
<stop offset="0.666667" stop-color="#C29217"/>
<stop offset="0.855158" stop-color="#FFE600"/>
<stop offset="1" stop-color="#FFE712" stop-opacity="0"/>
</linearGradient>
<linearGradient id="paint19_linear_4341_3245" x1="62.5417" y1="6.09694" x2="63.364" y2="13.3159" gradientUnits="userSpaceOnUse">
<stop offset="0.0200484" stop-color="#C29217"/>
<stop offset="0.389877" stop-color="#FFE605" stop-opacity="0.742865"/>
<stop offset="0.666667" stop-color="#C29217"/>
<stop offset="0.855158" stop-color="#FFE600"/>
<stop offset="1" stop-color="#FFE712" stop-opacity="0"/>
</linearGradient>
<linearGradient id="paint20_linear_4341_3245" x1="58.4006" y1="6.14568" x2="59.9359" y2="13.2576" gradientUnits="userSpaceOnUse">
<stop offset="0.0200484" stop-color="#C29217"/>
<stop offset="0.389877" stop-color="#FFE605" stop-opacity="0.742865"/>
<stop offset="0.666667" stop-color="#C29217"/>
<stop offset="0.855158" stop-color="#FFE600"/>
<stop offset="1" stop-color="#FFE712" stop-opacity="0"/>
</linearGradient>
<linearGradient id="paint21_linear_4341_3245" x1="125.025" y1="63.3653" x2="119.996" y2="68.8029" gradientUnits="userSpaceOnUse">
<stop offset="0.0200484" stop-color="#C29217"/>
<stop offset="0.389877" stop-color="#FFE605" stop-opacity="0.742865"/>
<stop offset="0.666667" stop-color="#C29217"/>
<stop offset="0.855158" stop-color="#FFE600"/>
<stop offset="1" stop-color="#FFE712" stop-opacity="0"/>
</linearGradient>
<linearGradient id="paint22_linear_4341_3245" x1="124.703" y1="59.6222" x2="119.675" y2="65.0597" gradientUnits="userSpaceOnUse">
<stop offset="0.0200484" stop-color="#C29217"/>
<stop offset="0.389877" stop-color="#FFE605" stop-opacity="0.742865"/>
<stop offset="0.666667" stop-color="#C29217"/>
<stop offset="0.855158" stop-color="#FFE600"/>
<stop offset="1" stop-color="#FFE712" stop-opacity="0"/>
</linearGradient>
<linearGradient id="paint23_linear_4341_3245" x1="124.839" y1="55.8686" x2="119.811" y2="61.3061" gradientUnits="userSpaceOnUse">
<stop offset="0.0200484" stop-color="#C29217"/>
<stop offset="0.389877" stop-color="#FFE605" stop-opacity="0.742865"/>
<stop offset="0.666667" stop-color="#C29217"/>
<stop offset="0.855158" stop-color="#FFE600"/>
<stop offset="1" stop-color="#FFE712" stop-opacity="0"/>
</linearGradient>
<linearGradient id="paint24_linear_4341_3245" x1="124.374" y1="51.8969" x2="119.346" y2="57.3345" gradientUnits="userSpaceOnUse">
<stop offset="0.0200484" stop-color="#C29217"/>
<stop offset="0.389877" stop-color="#FFE605" stop-opacity="0.742865"/>
<stop offset="0.666667" stop-color="#C29217"/>
<stop offset="0.855158" stop-color="#FFE600"/>
<stop offset="1" stop-color="#FFE712" stop-opacity="0"/>
</linearGradient>
<linearGradient id="paint25_linear_4341_3245" x1="123.683" y1="47.9274" x2="118.655" y2="53.365" gradientUnits="userSpaceOnUse">
<stop offset="0.0200484" stop-color="#C29217"/>
<stop offset="0.389877" stop-color="#FFE605" stop-opacity="0.742865"/>
<stop offset="0.666667" stop-color="#C29217"/>
<stop offset="0.855158" stop-color="#FFE600"/>
<stop offset="1" stop-color="#FFE712" stop-opacity="0"/>
</linearGradient>
<linearGradient id="paint26_linear_4341_3245" x1="122.49" y1="44.6715" x2="117.462" y2="50.1091" gradientUnits="userSpaceOnUse">
<stop offset="0.0200484" stop-color="#C29217"/>
<stop offset="0.389877" stop-color="#FFE605" stop-opacity="0.742865"/>
<stop offset="0.666667" stop-color="#C29217"/>
<stop offset="0.855158" stop-color="#FFE600"/>
<stop offset="1" stop-color="#FFE712" stop-opacity="0"/>
</linearGradient>
<linearGradient id="paint27_linear_4341_3245" x1="120.925" y1="41.7514" x2="115.897" y2="47.189" gradientUnits="userSpaceOnUse">
<stop offset="0.0200484" stop-color="#C29217"/>
<stop offset="0.389877" stop-color="#FFE605" stop-opacity="0.742865"/>
<stop offset="0.666667" stop-color="#C29217"/>
<stop offset="0.855158" stop-color="#FFE600"/>
<stop offset="1" stop-color="#FFE712" stop-opacity="0"/>
</linearGradient>
<linearGradient id="paint28_linear_4341_3245" x1="119.801" y1="38.3348" x2="114.772" y2="43.7723" gradientUnits="userSpaceOnUse">
<stop offset="0.0200484" stop-color="#C29217"/>
<stop offset="0.389877" stop-color="#FFE605" stop-opacity="0.742865"/>
<stop offset="0.666667" stop-color="#C29217"/>
<stop offset="0.855158" stop-color="#FFE600"/>
<stop offset="1" stop-color="#FFE712" stop-opacity="0"/>
</linearGradient>
<linearGradient id="paint29_linear_4341_3245" x1="117.665" y1="35.7372" x2="112.637" y2="41.1747" gradientUnits="userSpaceOnUse">
<stop offset="0.0200484" stop-color="#C29217"/>
<stop offset="0.389877" stop-color="#FFE605" stop-opacity="0.742865"/>
<stop offset="0.666667" stop-color="#C29217"/>
<stop offset="0.855158" stop-color="#FFE600"/>
<stop offset="1" stop-color="#FFE712" stop-opacity="0"/>
</linearGradient>
<linearGradient id="paint30_linear_4341_3245" x1="116.095" y1="32.4884" x2="111.066" y2="37.926" gradientUnits="userSpaceOnUse">
<stop offset="0.0200484" stop-color="#C29217"/>
<stop offset="0.389877" stop-color="#FFE605" stop-opacity="0.742865"/>
<stop offset="0.666667" stop-color="#C29217"/>
<stop offset="0.855158" stop-color="#FFE600"/>
<stop offset="1" stop-color="#FFE712" stop-opacity="0"/>
</linearGradient>
<linearGradient id="paint31_linear_4341_3245" x1="114.713" y1="29.6217" x2="109.685" y2="35.0592" gradientUnits="userSpaceOnUse">
<stop offset="0.0200484" stop-color="#C29217"/>
<stop offset="0.389877" stop-color="#FFE605" stop-opacity="0.742865"/>
<stop offset="0.666667" stop-color="#C29217"/>
<stop offset="0.855158" stop-color="#FFE600"/>
<stop offset="1" stop-color="#FFE712" stop-opacity="0"/>
</linearGradient>
<linearGradient id="paint32_linear_4341_3245" x1="12.6791" y1="36.8185" x2="20.4859" y2="37.6669" gradientUnits="userSpaceOnUse">
<stop offset="0.0200484" stop-color="#C29217"/>
<stop offset="0.389877" stop-color="#FFE605" stop-opacity="0.742865"/>
<stop offset="0.666667" stop-color="#C29217"/>
<stop offset="0.855158" stop-color="#FFE600"/>
<stop offset="1" stop-color="#FFE712" stop-opacity="0"/>
</linearGradient>
<linearGradient id="paint33_linear_4341_3245" x1="11.8543" y1="40.9987" x2="19.3727" y2="40.1357" gradientUnits="userSpaceOnUse">
<stop offset="0.0200484" stop-color="#C29217"/>
<stop offset="0.389877" stop-color="#FFE605" stop-opacity="0.742865"/>
<stop offset="0.666667" stop-color="#C29217"/>
<stop offset="0.855158" stop-color="#FFE600"/>
<stop offset="1" stop-color="#FFE712" stop-opacity="0"/>
</linearGradient>
<linearGradient id="paint34_linear_4341_3245" x1="10.2623" y1="44.9095" x2="17.6609" y2="43.3606" gradientUnits="userSpaceOnUse">
<stop offset="0.0200484" stop-color="#C29217"/>
<stop offset="0.389877" stop-color="#FFE605" stop-opacity="0.742865"/>
<stop offset="0.666667" stop-color="#C29217"/>
<stop offset="0.855158" stop-color="#FFE600"/>
<stop offset="1" stop-color="#FFE712" stop-opacity="0"/>
</linearGradient>
<linearGradient id="paint35_linear_4341_3245" x1="9.16066" y1="49.0679" x2="16.277" y2="46.5804" gradientUnits="userSpaceOnUse">
<stop offset="0.0200484" stop-color="#C29217"/>
<stop offset="0.389877" stop-color="#FFE605" stop-opacity="0.742865"/>
<stop offset="0.666667" stop-color="#C29217"/>
<stop offset="0.855158" stop-color="#FFE600"/>
<stop offset="1" stop-color="#FFE712" stop-opacity="0"/>
</linearGradient>
<linearGradient id="paint36_linear_4341_3245" x1="8.47023" y1="52.5972" x2="15.5866" y2="50.1097" gradientUnits="userSpaceOnUse">
<stop offset="0.0200484" stop-color="#C29217"/>
<stop offset="0.389877" stop-color="#FFE605" stop-opacity="0.742865"/>
<stop offset="0.666667" stop-color="#C29217"/>
<stop offset="0.855158" stop-color="#FFE600"/>
<stop offset="1" stop-color="#FFE712" stop-opacity="0"/>
</linearGradient>
<linearGradient id="paint37_linear_4341_3245" x1="7.77882" y1="56.5667" x2="14.8952" y2="54.0792" gradientUnits="userSpaceOnUse">
<stop offset="0.0200484" stop-color="#C29217"/>
<stop offset="0.389877" stop-color="#FFE605" stop-opacity="0.742865"/>
<stop offset="0.666667" stop-color="#C29217"/>
<stop offset="0.855158" stop-color="#FFE600"/>
<stop offset="1" stop-color="#FFE712" stop-opacity="0"/>
</linearGradient>
<linearGradient id="paint38_linear_4341_3245" x1="7.32033" y1="60.3161" x2="14.4367" y2="57.8286" gradientUnits="userSpaceOnUse">
<stop offset="0.0200484" stop-color="#C29217"/>
<stop offset="0.389877" stop-color="#FFE605" stop-opacity="0.742865"/>
<stop offset="0.666667" stop-color="#C29217"/>
<stop offset="0.855158" stop-color="#FFE600"/>
<stop offset="1" stop-color="#FFE712" stop-opacity="0"/>
</linearGradient>
<linearGradient id="paint39_linear_4341_3245" x1="7.32033" y1="63.8455" x2="14.4367" y2="61.358" gradientUnits="userSpaceOnUse">
<stop offset="0.0200484" stop-color="#C29217"/>
<stop offset="0.389877" stop-color="#FFE605" stop-opacity="0.742865"/>
<stop offset="0.666667" stop-color="#C29217"/>
<stop offset="0.855158" stop-color="#FFE600"/>
<stop offset="1" stop-color="#FFE712" stop-opacity="0"/>
</linearGradient>
<linearGradient id="paint40_linear_4341_3245" x1="7.6382" y1="66.9971" x2="14.7546" y2="64.5096" gradientUnits="userSpaceOnUse">
<stop offset="0.0200484" stop-color="#C29217"/>
<stop offset="0.389877" stop-color="#FFE605" stop-opacity="0.742865"/>
<stop offset="0.666667" stop-color="#C29217"/>
<stop offset="0.855158" stop-color="#FFE600"/>
<stop offset="1" stop-color="#FFE712" stop-opacity="0"/>
</linearGradient>
<linearGradient id="paint41_linear_4341_3245" x1="7.54982" y1="70.903" x2="14.6662" y2="68.4154" gradientUnits="userSpaceOnUse">
<stop offset="0.0200484" stop-color="#C29217"/>
<stop offset="0.389877" stop-color="#FFE605" stop-opacity="0.742865"/>
<stop offset="0.666667" stop-color="#C29217"/>
<stop offset="0.855158" stop-color="#FFE600"/>
<stop offset="1" stop-color="#FFE712" stop-opacity="0"/>
</linearGradient>
<linearGradient id="paint42_linear_4341_3245" x1="54.2586" y1="6.28832" x2="56.2449" y2="13.2974" gradientUnits="userSpaceOnUse">
<stop offset="0.0200484" stop-color="#C29217"/>
<stop offset="0.389877" stop-color="#FFE605" stop-opacity="0.742865"/>
<stop offset="0.666667" stop-color="#C29217"/>
<stop offset="0.855158" stop-color="#FFE600"/>
<stop offset="1" stop-color="#FFE712" stop-opacity="0"/>
</linearGradient>
<linearGradient id="paint43_linear_4341_3245" x1="49.9667" y1="7.46498" x2="53.335" y2="13.9733" gradientUnits="userSpaceOnUse">
<stop offset="0.0200484" stop-color="#C29217"/>
<stop offset="0.389877" stop-color="#FFE605" stop-opacity="0.742865"/>
<stop offset="0.666667" stop-color="#C29217"/>
<stop offset="0.855158" stop-color="#FFE600"/>
<stop offset="1" stop-color="#FFE712" stop-opacity="0"/>
</linearGradient>
<linearGradient id="paint44_linear_4341_3245" x1="45.9066" y1="8.40391" x2="49.9693" y2="14.5381" gradientUnits="userSpaceOnUse">
<stop offset="0.0200484" stop-color="#C29217"/>
<stop offset="0.389877" stop-color="#FFE605" stop-opacity="0.742865"/>
<stop offset="0.666667" stop-color="#C29217"/>
<stop offset="0.855158" stop-color="#FFE600"/>
<stop offset="1" stop-color="#FFE712" stop-opacity="0"/>
</linearGradient>
<linearGradient id="paint45_linear_4341_3245" x1="41.9192" y1="10.4514" x2="46.9253" y2="15.9078" gradientUnits="userSpaceOnUse">
<stop offset="0.0200484" stop-color="#C29217"/>
<stop offset="0.389877" stop-color="#FFE605" stop-opacity="0.742865"/>
<stop offset="0.666667" stop-color="#C29217"/>
<stop offset="0.855158" stop-color="#FFE600"/>
<stop offset="1" stop-color="#FFE712" stop-opacity="0"/>
</linearGradient>
<linearGradient id="paint46_linear_4341_3245" x1="37.9282" y1="12.2841" x2="43.4944" y2="17.2162" gradientUnits="userSpaceOnUse">
<stop offset="0.0200484" stop-color="#C29217"/>
<stop offset="0.389877" stop-color="#FFE605" stop-opacity="0.742865"/>
<stop offset="0.666667" stop-color="#C29217"/>
<stop offset="0.855158" stop-color="#FFE600"/>
<stop offset="1" stop-color="#FFE712" stop-opacity="0"/>
</linearGradient>
<linearGradient id="paint47_linear_4341_3245" x1="34.05" y1="13.795" x2="40.0396" y2="18.2469" gradientUnits="userSpaceOnUse">
<stop offset="0.0200484" stop-color="#C29217"/>
<stop offset="0.389877" stop-color="#FFE605" stop-opacity="0.742865"/>
<stop offset="0.666667" stop-color="#C29217"/>
<stop offset="0.855158" stop-color="#FFE600"/>
<stop offset="1" stop-color="#FFE712" stop-opacity="0"/>
</linearGradient>
<linearGradient id="paint48_linear_4341_3245" x1="30.8596" y1="15.7901" x2="36.8755" y2="20.2092" gradientUnits="userSpaceOnUse">
<stop offset="0.0200484" stop-color="#C29217"/>
<stop offset="0.389877" stop-color="#FFE605" stop-opacity="0.742865"/>
<stop offset="0.666667" stop-color="#C29217"/>
<stop offset="0.855158" stop-color="#FFE600"/>
<stop offset="1" stop-color="#FFE712" stop-opacity="0"/>
</linearGradient>
<linearGradient id="paint49_linear_4341_3245" x1="27.2325" y1="18.1416" x2="33.6551" y2="21.9968" gradientUnits="userSpaceOnUse">
<stop offset="0.0200484" stop-color="#C29217"/>
<stop offset="0.389877" stop-color="#FFE605" stop-opacity="0.742865"/>
<stop offset="0.666667" stop-color="#C29217"/>
<stop offset="0.855158" stop-color="#FFE600"/>
<stop offset="1" stop-color="#FFE712" stop-opacity="0"/>
</linearGradient>
<linearGradient id="paint50_linear_4341_3245" x1="24.4742" y1="20.7883" x2="30.8968" y2="24.6435" gradientUnits="userSpaceOnUse">
<stop offset="0.0200484" stop-color="#C29217"/>
<stop offset="0.389877" stop-color="#FFE605" stop-opacity="0.742865"/>
<stop offset="0.666667" stop-color="#C29217"/>
<stop offset="0.855158" stop-color="#FFE600"/>
<stop offset="1" stop-color="#FFE712" stop-opacity="0"/>
</linearGradient>
<linearGradient id="paint51_linear_4341_3245" x1="21.9439" y1="23.6552" x2="28.3665" y2="27.5103" gradientUnits="userSpaceOnUse">
<stop offset="0.0200484" stop-color="#C29217"/>
<stop offset="0.389877" stop-color="#FFE605" stop-opacity="0.742865"/>
<stop offset="0.666667" stop-color="#C29217"/>
<stop offset="0.855158" stop-color="#FFE600"/>
<stop offset="1" stop-color="#FFE712" stop-opacity="0"/>
</linearGradient>
<linearGradient id="paint52_linear_4341_3245" x1="20.106" y1="26.5231" x2="26.5287" y2="30.3783" gradientUnits="userSpaceOnUse">
<stop offset="0.0200484" stop-color="#C29217"/>
<stop offset="0.389877" stop-color="#FFE605" stop-opacity="0.742865"/>
<stop offset="0.666667" stop-color="#C29217"/>
<stop offset="0.855158" stop-color="#FFE600"/>
<stop offset="1" stop-color="#FFE712" stop-opacity="0"/>
</linearGradient>
<linearGradient id="paint53_linear_4341_3245" x1="17.7587" y1="29.7173" x2="24.6371" y2="32.7613" gradientUnits="userSpaceOnUse">
<stop offset="0.0200484" stop-color="#C29217"/>
<stop offset="0.389877" stop-color="#FFE605" stop-opacity="0.742865"/>
<stop offset="0.666667" stop-color="#C29217"/>
<stop offset="0.855158" stop-color="#FFE600"/>
<stop offset="1" stop-color="#FFE712" stop-opacity="0"/>
</linearGradient>
<linearGradient id="paint54_linear_4341_3245" x1="14.3692" y1="32.8976" x2="21.595" y2="36.6792" gradientUnits="userSpaceOnUse">
<stop offset="0.0200484" stop-color="#C29217"/>
<stop offset="0.389877" stop-color="#FFE605" stop-opacity="0.742865"/>
<stop offset="0.666667" stop-color="#C29217"/>
<stop offset="0.855158" stop-color="#FFE600"/>
<stop offset="1" stop-color="#FFE712" stop-opacity="0"/>
</linearGradient>
<linearGradient id="paint55_linear_4341_3245" x1="65.3898" y1="71.8574" x2="65.3898" y2="135.143" gradientUnits="userSpaceOnUse">
<stop stop-color="#331E19"/>
<stop offset="0.760417" stop-color="#9D510A" stop-opacity="0.97"/>
</linearGradient>
<linearGradient id="paint56_linear_4341_3245" x1="65.5395" y1="80.0049" x2="65.5395" y2="136.246" gradientUnits="userSpaceOnUse">
<stop stop-color="#2DA304"/>
<stop offset="1" stop-color="#55B533" stop-opacity="0"/>
</linearGradient>
</defs>
</svg>
