<svg width="200" height="200" viewBox="0 0 200 200" fill="none" xmlns="http://www.w3.org/2000/svg">
<ellipse cx="57.6868" cy="57.7602" rx="57.6868" ry="57.7602" transform="matrix(0.988492 -0.151272 0.164127 0.986439 33.7705 48.6089)" fill="url(#paint0_linear_1_4676)"/>
<path d="M33.5238 106.371C36.7547 107.522 42.1593 105.843 41.7479 106.905C41.3365 107.968 36.7642 109.461 33.5333 108.31C30.3024 107.16 25.1611 105.906 25.5725 104.843C25.9839 103.78 30.2928 105.221 33.5238 106.371Z" fill="url(#paint1_linear_1_4676)"/>
<path d="M164.622 112.111C161.193 112.443 157.113 116.234 156.994 115.107C156.875 113.979 160.294 110.707 163.723 110.374C167.152 110.042 172.344 108.996 172.462 110.123C172.581 111.251 168.051 111.779 164.622 112.111Z" fill="url(#paint2_linear_1_4676)"/>
<path d="M165.496 106.879C162.11 107.493 158.384 111.607 158.165 110.493C157.945 109.379 161.058 105.837 164.444 105.223C167.831 104.61 172.91 103.139 173.129 104.253C173.348 105.366 168.883 106.265 165.496 106.879Z" fill="url(#paint3_linear_1_4676)"/>
<path d="M166.219 101.916C162.79 102.248 158.71 106.039 158.591 104.912C158.472 103.784 161.891 100.512 165.32 100.179C168.749 99.8472 173.94 98.8008 174.059 99.9285C174.178 101.056 169.648 101.584 166.219 101.916Z" fill="url(#paint4_linear_1_4676)"/>
<path d="M151.936 54.8206C148.544 55.4063 144.782 59.4889 144.572 58.3734C144.363 57.258 147.507 53.7417 150.899 53.156C154.291 52.5703 159.383 51.1418 159.592 52.2573C159.802 53.3728 155.328 54.2348 151.936 54.8206Z" fill="url(#paint5_linear_1_4676)"/>
<path d="M148.747 52.0175C145.355 52.6033 141.592 56.6859 141.383 55.5704C141.174 54.4549 144.318 50.9387 147.71 50.353C151.102 49.7672 156.193 48.3388 156.403 49.4543C156.612 50.5698 152.138 51.4318 148.747 52.0175Z" fill="url(#paint6_linear_1_4676)"/>
<path d="M146.089 48.9588C142.697 49.5445 138.935 53.6272 138.726 52.5117C138.516 51.3962 141.661 47.8799 145.053 47.2942C148.445 46.7085 153.536 45.28 153.746 46.3955C153.955 47.511 149.481 48.3731 146.089 48.9588Z" fill="url(#paint7_linear_1_4676)"/>
<path d="M142.636 46.1546C139.244 46.7403 135.482 50.8229 135.273 49.7074C135.063 48.5919 138.208 45.0757 141.6 44.49C144.992 43.9043 150.083 42.4758 150.293 43.5913C150.502 44.7068 146.028 45.5688 142.636 46.1546Z" fill="url(#paint8_linear_1_4676)"/>
<path d="M139.179 43.6058C135.787 44.1915 132.025 48.2741 131.816 47.1586C131.606 46.0431 134.751 42.5269 138.143 41.9412C141.535 41.3555 146.626 39.927 146.836 41.0425C147.045 42.158 142.571 43.02 139.179 43.6058Z" fill="url(#paint9_linear_1_4676)"/>
<path d="M135.473 41.1041C132.175 42.0616 128.929 46.5337 128.587 45.4488C128.245 44.364 130.945 40.523 134.243 39.5655C137.542 38.608 142.427 36.6252 142.77 37.71C143.112 38.7948 138.772 40.1466 135.473 41.1041Z" fill="url(#paint10_linear_1_4676)"/>
<path d="M131.941 38.7084C128.76 39.9797 126.001 44.7425 125.546 43.6963C125.092 42.65 127.375 38.5678 130.556 37.2965C133.737 36.0252 138.39 33.5804 138.844 34.6267C139.299 35.6729 135.123 37.4371 131.941 38.7084Z" fill="url(#paint11_linear_1_4676)"/>
<path d="M127.988 36.9773C125.016 38.6513 122.957 43.7294 122.358 42.7521C121.76 41.7747 123.443 37.4329 126.415 35.7589C129.387 34.085 133.65 31.0568 134.248 32.0341C134.847 33.0115 130.959 35.3033 127.988 36.9773Z" fill="url(#paint12_linear_1_4676)"/>
<path d="M123.911 35.1472C121.007 36.9275 119.149 42.0765 118.513 41.1215C117.876 40.1666 119.388 35.7669 122.292 33.9866C125.195 32.2063 129.336 29.0261 129.973 29.9811C130.609 30.9361 126.815 33.3669 123.911 35.1472Z" fill="url(#paint13_linear_1_4676)"/>
<path d="M119.906 33.6043C117.195 35.6452 115.864 40.9422 115.134 40.0507C114.405 39.1591 115.466 34.6401 118.177 32.5991C120.888 30.5582 124.689 27.0093 125.419 27.9008C126.149 28.7924 122.617 31.5634 119.906 33.6043Z" fill="url(#paint14_linear_1_4676)"/>
<path d="M115.475 32.317C112.878 34.4893 111.834 39.845 111.057 38.9908C110.28 38.1365 111.097 33.571 113.695 31.3986C116.292 29.2263 119.898 25.4941 120.674 26.3484C121.451 27.2026 118.073 30.1447 115.475 32.317Z" fill="url(#paint15_linear_1_4676)"/>
<path d="M110.856 31.4285C108.477 33.8199 107.949 39.2449 107.094 38.4625C106.239 37.68 106.617 33.0619 108.996 30.6705C111.375 28.2791 114.608 24.2457 115.463 25.0282C116.318 25.8106 113.236 29.0371 110.856 31.4285Z" fill="url(#paint16_linear_1_4676)"/>
<path d="M105.898 31.0004C103.766 33.5968 103.775 39.0453 102.847 38.3439C101.918 37.6426 101.839 33.0109 103.971 30.4145C106.104 27.8181 108.925 23.5096 109.854 24.211C110.782 24.9124 108.031 28.404 105.898 31.0004Z" fill="url(#paint17_linear_1_4676)"/>
<path d="M101.054 30.6797C99.0968 33.4001 99.4649 38.8372 98.4922 38.1934C97.5195 37.5496 97.135 32.9321 99.0925 30.2117C101.05 27.4913 103.582 23.0206 104.555 23.6643C105.528 24.3081 103.012 27.9593 101.054 30.6797Z" fill="url(#paint18_linear_1_4676)"/>
<path d="M96.3002 30.7923C94.4672 33.5914 95.0802 39.0081 94.0793 38.4053C93.0785 37.8024 92.4861 33.2052 94.3191 30.4061C96.1521 27.607 98.4802 23.0355 99.481 23.6383C100.482 24.2411 98.1332 27.9932 96.3002 30.7923Z" fill="url(#paint19_linear_1_4676)"/>
<path d="M91.7025 30.7491C90.1799 33.7144 91.3715 39.0417 90.3112 38.541C89.2509 38.0403 88.1679 33.526 89.6904 30.5607C91.213 27.5954 93.0377 22.8182 94.098 23.3189C95.1582 23.8196 93.2251 27.7838 91.7025 30.7491Z" fill="url(#paint20_linear_1_4676)"/>
<path d="M166.732 96.9945C163.312 97.4053 159.328 101.289 159.181 100.164C159.034 99.0397 162.37 95.6899 165.79 95.2791C169.209 94.8684 174.373 93.7033 174.52 94.8279C174.667 95.9526 170.152 96.5837 166.732 96.9945Z" fill="url(#paint21_linear_1_4676)"/>
<path d="M166.36 92.6688C162.94 93.0796 158.955 96.9633 158.809 95.8386C158.662 94.714 161.998 91.3642 165.418 90.9534C168.837 90.5426 174.001 89.3776 174.148 90.5022C174.295 91.6268 169.78 92.258 166.36 92.6688Z" fill="url(#paint22_linear_1_4676)"/>
<path d="M166.517 88.3309C163.097 88.7417 159.113 92.6254 158.966 91.5007C158.819 90.3761 162.155 87.0263 165.575 86.6155C168.995 86.2048 174.159 85.0397 174.305 86.1643C174.452 87.289 169.937 87.9201 166.517 88.3309Z" fill="url(#paint23_linear_1_4676)"/>
<path d="M165.979 83.7411C162.559 84.1518 158.575 88.0355 158.428 86.9109C158.281 85.7862 161.617 82.4365 165.037 82.0257C168.456 81.6149 173.62 80.4498 173.767 81.5745C173.914 82.6991 169.399 83.3303 165.979 83.7411Z" fill="url(#paint24_linear_1_4676)"/>
<path d="M165.181 79.1536C161.761 79.5644 157.777 83.4481 157.63 82.3234C157.483 81.1988 160.819 77.849 164.239 77.4382C167.659 77.0274 172.823 75.8624 172.97 76.987C173.116 78.1116 168.601 78.7428 165.181 79.1536Z" fill="url(#paint25_linear_1_4676)"/>
<path d="M163.802 75.3909C160.382 75.8017 156.398 79.6854 156.251 78.5607C156.104 77.4361 159.44 74.0863 162.86 73.6755C166.28 73.2647 171.444 72.0996 171.591 73.2243C171.737 74.3489 167.222 74.9801 163.802 75.3909Z" fill="url(#paint26_linear_1_4676)"/>
<path d="M161.994 72.0163C158.574 72.4271 154.589 76.3108 154.442 75.1861C154.295 74.0615 157.632 70.7117 161.051 70.3009C164.471 69.8901 169.635 68.725 169.782 69.8497C169.929 70.9743 165.413 71.6055 161.994 72.0163Z" fill="url(#paint27_linear_1_4676)"/>
<path d="M160.694 68.0679C157.274 68.4786 153.289 72.3623 153.143 71.2377C152.996 70.113 156.332 66.7633 159.752 66.3525C163.171 65.9417 168.335 64.7766 168.482 65.9013C168.629 67.0259 164.114 67.6571 160.694 68.0679Z" fill="url(#paint28_linear_1_4676)"/>
<path d="M158.227 65.0659C154.807 65.4767 150.823 69.3604 150.676 68.2357C150.529 67.1111 153.865 63.7613 157.285 63.3505C160.705 62.9397 165.869 61.7747 166.015 62.8993C166.162 64.024 161.647 64.6551 158.227 65.0659Z" fill="url(#paint29_linear_1_4676)"/>
<path d="M156.412 61.3114C152.992 61.7222 149.007 65.6059 148.86 64.4813C148.713 63.3566 152.05 60.0068 155.469 59.5961C158.889 59.1853 164.053 58.0202 164.2 59.1449C164.347 60.2695 159.831 60.9007 156.412 61.3114Z" fill="url(#paint30_linear_1_4676)"/>
<path d="M154.815 57.9985C151.395 58.4092 147.411 62.2929 147.264 61.1683C147.117 60.0436 150.453 56.6939 153.873 56.2831C157.292 55.8723 162.456 54.7072 162.603 55.8319C162.75 56.9565 158.235 57.5877 154.815 57.9985Z" fill="url(#paint31_linear_1_4676)"/>
<path d="M39.8842 63.8254C42.4414 66.0414 48.3574 66.138 47.4821 67.0669C46.6069 67.9959 41.5691 67.9866 39.0119 65.7707C36.4547 63.5547 32.1235 60.6061 32.9987 59.6771C33.8739 58.7482 37.3271 61.6094 39.8842 63.8254Z" fill="url(#paint32_linear_1_4676)"/>
<path d="M38.6854 68.48C41.5881 70.2618 47.2412 69.7204 46.6041 70.6751C45.967 71.6297 41.1685 72.1584 38.2657 70.3766C35.3629 68.5947 30.6162 66.3228 31.2533 65.3682C31.8905 64.4135 35.7826 66.6981 38.6854 68.48Z" fill="url(#paint33_linear_1_4676)"/>
<path d="M36.7595 72.8441C39.8152 74.3729 45.3962 73.3543 44.8496 74.3593C44.3029 75.3642 39.5719 76.2976 36.5163 74.7688C33.4606 73.24 28.5231 71.3794 29.0697 70.3745C29.6164 69.3696 33.7038 71.3153 36.7595 72.8441Z" fill="url(#paint34_linear_1_4676)"/>
<path d="M35.3402 77.4436C38.5711 78.5941 43.9757 76.9147 43.5643 77.9772C43.1529 79.0398 38.5806 80.5329 35.3497 79.3824C32.1188 78.2319 26.9775 76.9777 27.3889 75.9151C27.8003 74.8526 32.1092 76.293 35.3402 77.4436Z" fill="url(#paint35_linear_1_4676)"/>
<path d="M34.5423 81.5223C37.7733 82.6728 43.1778 80.9934 42.7664 82.0559C42.355 83.1185 37.7828 84.6116 34.5518 83.4611C31.3209 82.3106 26.1797 81.0564 26.591 79.9938C27.0024 78.9313 31.3114 80.3717 34.5423 81.5223Z" fill="url(#paint36_linear_1_4676)"/>
<path d="M33.7435 86.1096C36.9744 87.2601 42.379 85.5807 41.9676 86.6432C41.5562 87.7058 36.9839 89.199 33.753 88.0484C30.5221 86.8979 25.3808 85.6437 25.7922 84.5811C26.2036 83.5186 30.5126 84.9591 33.7435 86.1096Z" fill="url(#paint37_linear_1_4676)"/>
<path d="M33.2132 90.4427C36.4442 91.5932 41.8487 89.9137 41.4373 90.9763C41.0259 92.0388 36.4537 93.532 33.2227 92.3815C29.9918 91.2309 24.8506 89.9767 25.2619 88.9142C25.6733 87.8516 29.9823 89.2921 33.2132 90.4427Z" fill="url(#paint38_linear_1_4676)"/>
<path d="M33.2132 94.5214C36.4442 95.6719 41.8487 93.9924 41.4373 95.055C41.0259 96.1175 36.4537 97.6107 33.2227 96.4602C29.9918 95.3096 24.8506 94.0554 25.2619 92.9929C25.6733 91.9303 29.9823 93.3708 33.2132 94.5214Z" fill="url(#paint39_linear_1_4676)"/>
<path d="M33.5804 98.1636C36.8113 99.3141 42.2159 97.6346 41.8045 98.6972C41.3931 99.7597 36.8209 101.253 33.5899 100.102C30.359 98.9518 25.2177 97.6976 25.6291 96.6351C26.0405 95.5725 30.3495 97.013 33.5804 98.1636Z" fill="url(#paint40_linear_1_4676)"/>
<path d="M33.4788 102.677C36.7098 103.828 42.1143 102.148 41.703 103.211C41.2916 104.274 36.7193 105.767 33.4884 104.616C30.2574 103.466 25.1162 102.211 25.5276 101.149C25.939 100.086 30.2479 101.527 33.4788 102.677Z" fill="url(#paint41_linear_1_4676)"/>
<path d="M87.0294 30.8409C85.7137 33.8959 87.2685 39.1364 86.1761 38.7038C85.0838 38.2711 83.6931 33.835 85.0087 30.78C86.3244 27.725 87.8171 22.8429 88.9094 23.2755C90.0017 23.7082 88.345 27.7859 87.0294 30.8409Z" fill="url(#paint42_linear_1_4676)"/>
<path d="M82.3908 31.9267C81.7597 35.1761 84.407 39.9969 83.2451 39.7894C82.0833 39.5819 79.7693 35.5158 80.4004 32.2664C81.0314 29.0169 81.4432 23.9446 82.605 24.1521C83.7669 24.3597 83.0218 28.6773 82.3908 31.9267Z" fill="url(#paint43_linear_1_4676)"/>
<path d="M77.8417 32.8429C77.5848 36.1391 80.7658 40.6534 79.5872 40.5689C78.4087 40.4845 75.6451 36.6854 75.9019 33.3893C76.1588 30.0931 75.9899 25.008 77.1684 25.0925C78.347 25.177 78.0985 29.5468 77.8417 32.8429Z" fill="url(#paint44_linear_1_4676)"/>
<path d="M73.4069 34.94C73.697 38.2336 77.5825 42.2085 76.4049 42.3039C75.2272 42.3993 71.8718 39.0673 71.5817 35.7737C71.2917 32.4801 70.2861 27.4847 71.4637 27.3893C72.6414 27.2939 73.1168 31.6464 73.4069 34.94Z" fill="url(#paint45_linear_1_4676)"/>
<path d="M68.8815 36.8706C69.5237 40.118 73.8155 43.688 72.6544 43.8992C71.4932 44.1104 67.7978 41.1276 67.1556 37.8801C66.5134 34.6327 64.9766 29.7632 66.1378 29.552C67.2989 29.3408 68.2393 33.6232 68.8815 36.8706Z" fill="url(#paint46_linear_1_4676)"/>
<path d="M64.4566 38.4561C65.3842 41.6395 69.9768 44.8468 68.8385 45.1519C67.7003 45.4569 63.754 42.786 62.8263 39.6027C61.8987 36.4193 59.9361 31.6926 61.0744 31.3876C62.2126 31.0825 63.529 35.2728 64.4566 38.4561Z" fill="url(#paint47_linear_1_4676)"/>
<path d="M60.7728 40.7513C61.7189 43.9296 66.33 47.1124 65.1936 47.4235C64.0572 47.7346 60.0954 45.0848 59.1493 41.9065C58.2032 38.7282 56.2132 34.012 57.3496 33.7009C58.486 33.3897 59.8267 37.5729 60.7728 40.7513Z" fill="url(#paint48_linear_1_4676)"/>
<path d="M56.6244 43.2918C57.869 46.3741 62.7637 49.1399 61.6617 49.5493C60.5596 49.9586 56.3621 47.6666 55.1175 44.5843C53.8729 41.5021 51.4424 36.9798 52.5445 36.5705C53.6466 36.1612 55.3798 40.2095 56.6244 43.2918Z" fill="url(#paint49_linear_1_4676)"/>
<path d="M53.4369 46.3504C54.6815 49.4327 59.5762 52.1986 58.4742 52.6079C57.3721 53.0172 53.1746 50.7252 51.93 47.6429C50.6854 44.5607 48.2549 40.0384 49.357 39.6291C50.4591 39.2198 52.1923 43.2682 53.4369 46.3504Z" fill="url(#paint50_linear_1_4676)"/>
<path d="M50.5121 49.6636C51.7567 52.7458 56.6514 55.5117 55.5493 55.921C54.4473 56.3303 50.2498 54.0383 49.0052 50.9561C47.7606 47.8738 45.3301 43.3515 46.4322 42.9422C47.5343 42.5329 49.2675 46.5813 50.5121 49.6636Z" fill="url(#paint51_linear_1_4676)"/>
<path d="M48.3881 52.9779C49.6327 56.0602 54.5274 58.826 53.4253 59.2354C52.3232 59.6447 48.1258 57.3527 46.8812 54.2704C45.6366 51.1882 43.2061 46.6659 44.3082 46.2566C45.4103 45.8473 47.1435 49.8956 48.3881 52.9779Z" fill="url(#paint52_linear_1_4676)"/>
<path d="M45.707 56.4306C47.3303 59.3463 52.5372 61.5256 51.4947 62.0595C50.4521 62.5933 45.997 60.8038 44.3737 57.8881C42.7504 54.9723 39.7688 50.7643 40.8113 50.2305C41.8538 49.6966 44.0837 53.5149 45.707 56.4306Z" fill="url(#paint53_linear_1_4676)"/>
<path d="M42.2144 59.7599C43.9934 62.5909 50.1501 64.0231 48.8565 64.7708C47.5629 65.5184 42.4599 63.6812 40.6809 60.8503C38.9019 58.0194 35.3927 54.735 36.6863 53.9873C37.9799 53.2396 40.4354 56.929 42.2144 59.7599Z" fill="url(#paint54_linear_1_4676)"/>
<path d="M78.4402 55.4918C78.5077 54.9042 79.1046 54.5288 79.6639 54.7212C93.2081 59.3824 95.9818 63.7597 93.1217 74.3703C93.0129 74.7742 92.6429 75.0567 92.2246 75.0567H92.0549C91.7293 75.0567 91.4272 75.2258 91.2569 75.5033L91.1819 75.6256C90.972 75.9676 90.5592 76.1369 90.1691 76.0427C78.0681 73.1229 76.9917 68.1091 78.4402 55.4918Z" fill="#7BDB01"/>
<path d="M69.9362 84.0092C69.837 83.4274 70.3079 82.897 70.8975 82.9233C89.4386 83.7479 93.7914 88.4317 93.9262 102.7C93.9285 102.947 93.7459 103.162 93.5016 103.193L93.2515 103.226C93.0245 103.256 92.9006 103.506 93.0151 103.705C93.1343 103.911 92.986 104.171 92.7478 104.184C76.5962 105.055 72.6725 100.051 69.9362 84.0092Z" fill="#7BDB01"/>
<path d="M121.958 54.0486C122.526 53.8187 123.167 54.2003 123.234 54.8096C125.587 76.0779 119.509 83.0551 101.585 87.4934C101.42 87.5343 101.269 87.3781 101.323 87.2169C101.404 86.9763 101.076 86.8176 100.937 87.0303L100.871 87.1328C100.76 87.3038 100.496 87.2494 100.451 87.0504C96.3856 69.0087 102.244 62.0223 121.958 54.0486Z" fill="#7BDB01"/>
<path d="M106.513 122.905C107.459 121.65 108.522 122.505 110.093 122.445C110.538 122.428 111.157 122.397 112.016 122.37C116.27 121.71 114.464 123.241 117.311 125.704C117.421 125.8 117.528 125.909 117.619 126.023C121.143 130.481 123.924 131.059 128.326 132.598C128.675 132.719 128.908 133.05 128.908 133.419C128.908 133.902 128.516 134.294 128.033 134.294H82.4574C80.9775 134.294 80.169 132.568 81.1165 131.431C81.1818 131.352 81.2508 131.278 81.3378 131.225C83.0298 130.188 91.4768 130.46 97.8324 129.374C98.0149 129.342 98.1929 129.283 98.3587 129.201C102.536 127.125 104.607 125.433 106.513 122.905Z" fill="#BA5400"/>
<path d="M93.3842 119.251C94.209 117.913 95.9887 118.124 96.9963 119.33C97.8989 120.41 99.2384 121.021 101.973 120.937C106.228 120.277 105.376 123.244 108.262 125.762C108.372 125.858 108.478 125.966 108.569 126.081C112.093 130.538 114.874 131.117 119.276 132.655C119.625 132.777 119.858 133.107 119.858 133.476C119.858 133.959 119.466 134.351 118.983 134.351H77.0992C75.0659 134.351 74.3448 131.659 76.1058 130.643L77.0172 130.117C77.119 130.058 77.2158 129.99 77.3045 129.913C78.5329 128.844 78.7852 128.216 84.8485 127.114C85.0307 127.081 85.2146 127.022 85.3799 126.938C89.622 124.796 91.5307 122.257 93.3842 119.251Z" fill="#EB7900"/>
<path d="M90.7377 65.4849C90.9015 65.6549 90.994 65.8872 90.955 66.1201C90.6648 67.8566 90.9304 68.9554 91.0191 70.7581C91.0234 70.8465 91.0467 70.9352 91.0865 71.0142C95.123 79.0376 96.726 84.128 97.8113 91.3819C97.9175 92.0916 99.0113 92.1252 99.1603 91.4233C100.053 87.2206 101.015 84.0157 102.676 79.3072C102.709 79.2114 102.72 79.1074 102.705 79.0069L101.972 74.0236C101.956 73.9131 101.968 73.7992 102.016 73.6984C102.255 73.1965 102.529 73.063 103.079 73.167C103.254 73.2 103.397 73.3218 103.477 73.481L104.138 74.804C104.348 75.2238 104.929 75.2704 105.203 74.8896L107.409 71.8265C112.272 66.1138 109.16 71.0355 108.966 72.52C108.946 72.6756 108.926 72.8387 108.85 72.9757L105.196 79.5008C104.947 79.9447 105.305 80.4836 105.811 80.4258L109.623 79.9901C109.886 79.9601 110.154 80.0944 110.224 80.3494C110.293 80.6025 110.278 80.8219 110.175 81.0922C110.112 81.2567 109.964 81.3708 109.794 81.4171L104.985 82.7288C104.937 82.742 104.889 82.761 104.846 82.786C103.758 83.4127 103.369 84.2074 102.748 85.6653C102.735 85.6969 102.723 85.7307 102.715 85.7641C101.054 92.6494 100.307 96.4915 99.763 103.189L100.224 123.454C100.228 123.661 100.132 123.86 99.9574 123.971C99.5075 124.254 99.1573 124.326 98.6064 123.965C98.4449 123.859 98.3602 123.669 98.3623 123.476C98.4349 116.7 98.0604 113.276 95.8622 108.962C93.6571 105.054 91.3374 101.316 89.465 101.316C87.5926 101.316 85.7203 102.096 84.9401 101.94C84.1599 101.785 82.7557 101.439 84.1599 100.692C85.5642 99.9454 86.1883 99.2879 87.7486 99.2879C89.2567 99.2879 83.0692 95.3548 82.6531 95.0913C82.6377 95.0816 82.6224 95.0731 82.6064 95.0645C81.2339 94.3338 81.9866 92.6231 83.2553 93.3611C83.837 93.6995 84.6598 94.28 85.3832 94.8116C85.8755 95.1735 86.6346 94.672 86.6054 94.0617C86.5797 93.5252 86.6136 93.0088 86.6441 92.3787C86.6524 92.2075 86.7273 92.0436 86.8651 91.9417C87.2413 91.6637 87.5533 91.5933 88.0188 91.6974C88.2404 91.747 88.3983 91.9371 88.4394 92.1604L89.4254 97.513C89.451 97.6519 89.5241 97.7789 89.6304 97.8719C92.297 100.205 93.9416 101.988 95.9121 105.127C96.2623 105.685 97.1511 105.415 97.1074 104.758C96.331 93.0734 94.7757 85.8721 89.6014 74.1627C89.5173 73.9723 89.3419 73.8335 89.1368 73.7978L86.0504 73.261C85.9365 73.2412 85.8289 73.1913 85.7465 73.1102C85.3512 72.7209 85.3212 72.4412 85.7006 72.0097C85.8079 71.8876 85.9672 71.8265 86.1297 71.8265H87.3765C87.8372 71.8265 88.1391 71.3446 87.9381 70.9301L85.9551 66.84C85.9036 66.7338 85.8866 66.6149 85.8701 66.498C85.7516 65.6577 84.5754 63.9195 86.8504 65.6507C86.9261 65.7083 86.9903 65.7856 87.0323 65.871L88.7803 69.4214C89.0721 70.0142 89.9644 69.8064 89.9644 69.1458V66.0351C89.9644 65.849 90.0502 65.6745 90.1855 65.5466C90.6306 65.1257 90.3985 65.1328 90.7377 65.4849Z" fill="#549C00"/>
<path d="M113.29 95.045L111.473 95.9967C110.887 96.3038 110.796 97.106 111.298 97.5368L113.442 99.3738C113.498 99.4219 113.548 99.4765 113.591 99.5365L114.747 101.136C115.134 101.672 115.94 101.649 116.295 101.091L117.627 98.9976C117.701 98.882 117.799 98.784 117.914 98.7104L119.777 97.5254C120.391 97.1347 120.344 96.2237 119.693 95.8982L117.971 95.0373C117.819 94.9614 117.691 94.8457 117.6 94.7026L116.374 92.7763C115.999 92.1868 115.133 92.2011 114.778 92.8026L113.662 94.692C113.573 94.8419 113.444 94.9642 113.29 95.045Z" fill="#FFE4B2"/>
<path d="M67.2025 67.8823L66.1 68.5133C65.5534 68.8261 65.4654 69.5786 65.9251 70.0091L67.3537 71.347C67.4071 71.397 67.4545 71.453 67.4948 71.514L68.1096 72.4442C68.4924 73.0232 69.3502 72.9989 69.6996 72.3991L70.4593 71.0948C70.528 70.9768 70.6217 70.8753 70.7338 70.7973L71.8704 70.0072C72.4417 69.61 72.3954 68.7505 71.7848 68.4169L70.7925 67.8749C70.6428 67.7931 70.5182 67.6719 70.4323 67.5245L69.7801 66.4046C69.4123 65.7733 68.4953 65.7878 68.1477 66.4305L67.561 67.5152C67.478 67.6686 67.3539 67.7957 67.2025 67.8823Z" fill="#FFE4B2"/>
<path d="M173.362 117.219C173.362 152.412 133.23 178.137 94.1877 178.137C55.1459 178.137 24 157.254 24 122.062C24 86.8701 84.0676 134.042 123.109 134.042C162.151 134.042 173.362 82.0273 173.362 117.219Z" fill="url(#paint55_linear_1_4676)"/>
<path d="M171.666 121.878C171.666 154.379 132.538 178.137 94.4733 178.137C56.4085 178.137 26.042 158.851 26.042 126.35C26.042 93.8491 84.6065 137.414 122.671 137.414C160.736 137.414 171.666 89.3767 171.666 121.878Z" fill="#1D6923"/>
<path d="M170.535 125.275C170.535 156.55 132.015 179.411 94.5411 179.411C57.0676 179.411 27.1729 160.853 27.1729 129.579C27.1729 98.3041 84.8276 140.225 122.301 140.225C159.775 140.225 170.535 94.0004 170.535 125.275Z" fill="url(#paint56_linear_1_4676)"/>
<defs>
<linearGradient id="paint0_linear_1_4676" x1="30.9687" y1="18.8481" x2="57.75" y2="115.503" gradientUnits="userSpaceOnUse">
<stop offset="0.0200484" stop-color="#C29217"/>
<stop offset="0.389877" stop-color="#FFE605" stop-opacity="0.742865"/>
<stop offset="0.666667" stop-color="#C29217"/>
<stop offset="0.855158" stop-color="#FFE600"/>
<stop offset="1" stop-color="#FFE712" stop-opacity="0"/>
</linearGradient>
<linearGradient id="paint1_linear_1_4676" x1="31.8834" y1="107.591" x2="40.1075" y2="104.716" gradientUnits="userSpaceOnUse">
<stop offset="0.0200484" stop-color="#C29217"/>
<stop offset="0.389877" stop-color="#FFE605" stop-opacity="0.742865"/>
<stop offset="0.666667" stop-color="#C29217"/>
<stop offset="0.855158" stop-color="#FFE600"/>
<stop offset="1" stop-color="#FFE712" stop-opacity="0"/>
</linearGradient>
<linearGradient id="paint2_linear_1_4676" x1="165.535" y1="110.323" x2="159.569" y2="116.472" gradientUnits="userSpaceOnUse">
<stop offset="0.0200484" stop-color="#C29217"/>
<stop offset="0.389877" stop-color="#FFE605" stop-opacity="0.742865"/>
<stop offset="0.666667" stop-color="#C29217"/>
<stop offset="0.855158" stop-color="#FFE600"/>
<stop offset="1" stop-color="#FFE712" stop-opacity="0"/>
</linearGradient>
<linearGradient id="paint3_linear_1_4676" x1="166.245" y1="105.023" x2="160.847" y2="111.637" gradientUnits="userSpaceOnUse">
<stop offset="0.0200484" stop-color="#C29217"/>
<stop offset="0.389877" stop-color="#FFE605" stop-opacity="0.742865"/>
<stop offset="0.666667" stop-color="#C29217"/>
<stop offset="0.855158" stop-color="#FFE600"/>
<stop offset="1" stop-color="#FFE712" stop-opacity="0"/>
</linearGradient>
<linearGradient id="paint4_linear_1_4676" x1="167.131" y1="100.128" x2="161.166" y2="106.278" gradientUnits="userSpaceOnUse">
<stop offset="0.0200484" stop-color="#C29217"/>
<stop offset="0.389877" stop-color="#FFE605" stop-opacity="0.742865"/>
<stop offset="0.666667" stop-color="#C29217"/>
<stop offset="0.855158" stop-color="#FFE600"/>
<stop offset="1" stop-color="#FFE712" stop-opacity="0"/>
</linearGradient>
<linearGradient id="paint5_linear_1_4676" x1="152.701" y1="52.9702" x2="147.245" y2="59.5402" gradientUnits="userSpaceOnUse">
<stop offset="0.0200484" stop-color="#C29217"/>
<stop offset="0.389877" stop-color="#FFE605" stop-opacity="0.742865"/>
<stop offset="0.666667" stop-color="#C29217"/>
<stop offset="0.855158" stop-color="#FFE600"/>
<stop offset="1" stop-color="#FFE712" stop-opacity="0"/>
</linearGradient>
<linearGradient id="paint6_linear_1_4676" x1="149.512" y1="50.1672" x2="144.056" y2="56.7372" gradientUnits="userSpaceOnUse">
<stop offset="0.0200484" stop-color="#C29217"/>
<stop offset="0.389877" stop-color="#FFE605" stop-opacity="0.742865"/>
<stop offset="0.666667" stop-color="#C29217"/>
<stop offset="0.855158" stop-color="#FFE600"/>
<stop offset="1" stop-color="#FFE712" stop-opacity="0"/>
</linearGradient>
<linearGradient id="paint7_linear_1_4676" x1="146.855" y1="47.1084" x2="141.399" y2="53.6784" gradientUnits="userSpaceOnUse">
<stop offset="0.0200484" stop-color="#C29217"/>
<stop offset="0.389877" stop-color="#FFE605" stop-opacity="0.742865"/>
<stop offset="0.666667" stop-color="#C29217"/>
<stop offset="0.855158" stop-color="#FFE600"/>
<stop offset="1" stop-color="#FFE712" stop-opacity="0"/>
</linearGradient>
<linearGradient id="paint8_linear_1_4676" x1="143.402" y1="44.3042" x2="137.946" y2="50.8742" gradientUnits="userSpaceOnUse">
<stop offset="0.0200484" stop-color="#C29217"/>
<stop offset="0.389877" stop-color="#FFE605" stop-opacity="0.742865"/>
<stop offset="0.666667" stop-color="#C29217"/>
<stop offset="0.855158" stop-color="#FFE600"/>
<stop offset="1" stop-color="#FFE712" stop-opacity="0"/>
</linearGradient>
<linearGradient id="paint9_linear_1_4676" x1="139.945" y1="41.7554" x2="134.489" y2="48.3254" gradientUnits="userSpaceOnUse">
<stop offset="0.0200484" stop-color="#C29217"/>
<stop offset="0.389877" stop-color="#FFE605" stop-opacity="0.742865"/>
<stop offset="0.666667" stop-color="#C29217"/>
<stop offset="0.855158" stop-color="#FFE600"/>
<stop offset="1" stop-color="#FFE712" stop-opacity="0"/>
</linearGradient>
<linearGradient id="paint10_linear_1_4676" x1="136.011" y1="39.1814" x2="131.362" y2="46.2984" gradientUnits="userSpaceOnUse">
<stop offset="0.0200484" stop-color="#C29217"/>
<stop offset="0.389877" stop-color="#FFE605" stop-opacity="0.742865"/>
<stop offset="0.666667" stop-color="#C29217"/>
<stop offset="0.855158" stop-color="#FFE600"/>
<stop offset="1" stop-color="#FFE712" stop-opacity="0"/>
</linearGradient>
<linearGradient id="paint11_linear_1_4676" x1="132.274" y1="36.7435" x2="128.365" y2="44.2572" gradientUnits="userSpaceOnUse">
<stop offset="0.0200484" stop-color="#C29217"/>
<stop offset="0.389877" stop-color="#FFE605" stop-opacity="0.742865"/>
<stop offset="0.666667" stop-color="#C29217"/>
<stop offset="0.855158" stop-color="#FFE600"/>
<stop offset="1" stop-color="#FFE712" stop-opacity="0"/>
</linearGradient>
<linearGradient id="paint12_linear_1_4676" x1="128.039" y1="34.9873" x2="125.169" y2="42.9184" gradientUnits="userSpaceOnUse">
<stop offset="0.0200484" stop-color="#C29217"/>
<stop offset="0.389877" stop-color="#FFE605" stop-opacity="0.742865"/>
<stop offset="0.666667" stop-color="#C29217"/>
<stop offset="0.855158" stop-color="#FFE600"/>
<stop offset="1" stop-color="#FFE712" stop-opacity="0"/>
</linearGradient>
<linearGradient id="paint13_linear_1_4676" x1="123.884" y1="33.1568" x2="121.308" y2="41.1796" gradientUnits="userSpaceOnUse">
<stop offset="0.0200484" stop-color="#C29217"/>
<stop offset="0.389877" stop-color="#FFE605" stop-opacity="0.742865"/>
<stop offset="0.666667" stop-color="#C29217"/>
<stop offset="0.855158" stop-color="#FFE600"/>
<stop offset="1" stop-color="#FFE712" stop-opacity="0"/>
</linearGradient>
<linearGradient id="paint14_linear_1_4676" x1="119.678" y1="31.6257" x2="117.865" y2="39.8368" gradientUnits="userSpaceOnUse">
<stop offset="0.0200484" stop-color="#C29217"/>
<stop offset="0.389877" stop-color="#FFE605" stop-opacity="0.742865"/>
<stop offset="0.666667" stop-color="#C29217"/>
<stop offset="0.855158" stop-color="#FFE600"/>
<stop offset="1" stop-color="#FFE712" stop-opacity="0"/>
</linearGradient>
<linearGradient id="paint15_linear_1_4676" x1="115.142" y1="30.3522" x2="113.74" y2="38.6365" gradientUnits="userSpaceOnUse">
<stop offset="0.0200484" stop-color="#C29217"/>
<stop offset="0.389877" stop-color="#FFE605" stop-opacity="0.742865"/>
<stop offset="0.666667" stop-color="#C29217"/>
<stop offset="0.855158" stop-color="#FFE600"/>
<stop offset="1" stop-color="#FFE712" stop-opacity="0"/>
</linearGradient>
<linearGradient id="paint16_linear_1_4676" x1="110.337" y1="29.5013" x2="109.67" y2="37.869" gradientUnits="userSpaceOnUse">
<stop offset="0.0200484" stop-color="#C29217"/>
<stop offset="0.389877" stop-color="#FFE605" stop-opacity="0.742865"/>
<stop offset="0.666667" stop-color="#C29217"/>
<stop offset="0.855158" stop-color="#FFE600"/>
<stop offset="1" stop-color="#FFE712" stop-opacity="0"/>
</linearGradient>
<linearGradient id="paint17_linear_1_4676" x1="105.191" y1="29.129" x2="105.286" y2="37.5204" gradientUnits="userSpaceOnUse">
<stop offset="0.0200484" stop-color="#C29217"/>
<stop offset="0.389877" stop-color="#FFE605" stop-opacity="0.742865"/>
<stop offset="0.666667" stop-color="#C29217"/>
<stop offset="0.855158" stop-color="#FFE600"/>
<stop offset="1" stop-color="#FFE712" stop-opacity="0"/>
</linearGradient>
<linearGradient id="paint18_linear_1_4676" x1="100.225" y1="28.8548" x2="100.828" y2="37.227" gradientUnits="userSpaceOnUse">
<stop offset="0.0200484" stop-color="#C29217"/>
<stop offset="0.389877" stop-color="#FFE605" stop-opacity="0.742865"/>
<stop offset="0.666667" stop-color="#C29217"/>
<stop offset="0.855158" stop-color="#FFE600"/>
<stop offset="1" stop-color="#FFE712" stop-opacity="0"/>
</linearGradient>
<linearGradient id="paint19_linear_1_4676" x1="95.3895" y1="29.0035" x2="96.3397" y2="37.3462" gradientUnits="userSpaceOnUse">
<stop offset="0.0200484" stop-color="#C29217"/>
<stop offset="0.389877" stop-color="#FFE605" stop-opacity="0.742865"/>
<stop offset="0.666667" stop-color="#C29217"/>
<stop offset="0.855158" stop-color="#FFE600"/>
<stop offset="1" stop-color="#FFE712" stop-opacity="0"/>
</linearGradient>
<linearGradient id="paint20_linear_1_4676" x1="90.6045" y1="29.0598" x2="92.3788" y2="37.2787" gradientUnits="userSpaceOnUse">
<stop offset="0.0200484" stop-color="#C29217"/>
<stop offset="0.389877" stop-color="#FFE605" stop-opacity="0.742865"/>
<stop offset="0.666667" stop-color="#C29217"/>
<stop offset="0.855158" stop-color="#FFE600"/>
<stop offset="1" stop-color="#FFE712" stop-opacity="0"/>
</linearGradient>
<linearGradient id="paint21_linear_1_4676" x1="167.599" y1="95.1861" x2="161.788" y2="101.47" gradientUnits="userSpaceOnUse">
<stop offset="0.0200484" stop-color="#C29217"/>
<stop offset="0.389877" stop-color="#FFE605" stop-opacity="0.742865"/>
<stop offset="0.666667" stop-color="#C29217"/>
<stop offset="0.855158" stop-color="#FFE600"/>
<stop offset="1" stop-color="#FFE712" stop-opacity="0"/>
</linearGradient>
<linearGradient id="paint22_linear_1_4676" x1="167.227" y1="90.8604" x2="161.416" y2="97.1443" gradientUnits="userSpaceOnUse">
<stop offset="0.0200484" stop-color="#C29217"/>
<stop offset="0.389877" stop-color="#FFE605" stop-opacity="0.742865"/>
<stop offset="0.666667" stop-color="#C29217"/>
<stop offset="0.855158" stop-color="#FFE600"/>
<stop offset="1" stop-color="#FFE712" stop-opacity="0"/>
</linearGradient>
<linearGradient id="paint23_linear_1_4676" x1="167.385" y1="86.5225" x2="161.573" y2="92.8064" gradientUnits="userSpaceOnUse">
<stop offset="0.0200484" stop-color="#C29217"/>
<stop offset="0.389877" stop-color="#FFE605" stop-opacity="0.742865"/>
<stop offset="0.666667" stop-color="#C29217"/>
<stop offset="0.855158" stop-color="#FFE600"/>
<stop offset="1" stop-color="#FFE712" stop-opacity="0"/>
</linearGradient>
<linearGradient id="paint24_linear_1_4676" x1="166.846" y1="81.9326" x2="161.035" y2="88.2166" gradientUnits="userSpaceOnUse">
<stop offset="0.0200484" stop-color="#C29217"/>
<stop offset="0.389877" stop-color="#FFE605" stop-opacity="0.742865"/>
<stop offset="0.666667" stop-color="#C29217"/>
<stop offset="0.855158" stop-color="#FFE600"/>
<stop offset="1" stop-color="#FFE712" stop-opacity="0"/>
</linearGradient>
<linearGradient id="paint25_linear_1_4676" x1="166.049" y1="77.3452" x2="160.237" y2="83.6291" gradientUnits="userSpaceOnUse">
<stop offset="0.0200484" stop-color="#C29217"/>
<stop offset="0.389877" stop-color="#FFE605" stop-opacity="0.742865"/>
<stop offset="0.666667" stop-color="#C29217"/>
<stop offset="0.855158" stop-color="#FFE600"/>
<stop offset="1" stop-color="#FFE712" stop-opacity="0"/>
</linearGradient>
<linearGradient id="paint26_linear_1_4676" x1="164.67" y1="73.5825" x2="158.859" y2="79.8664" gradientUnits="userSpaceOnUse">
<stop offset="0.0200484" stop-color="#C29217"/>
<stop offset="0.389877" stop-color="#FFE605" stop-opacity="0.742865"/>
<stop offset="0.666667" stop-color="#C29217"/>
<stop offset="0.855158" stop-color="#FFE600"/>
<stop offset="1" stop-color="#FFE712" stop-opacity="0"/>
</linearGradient>
<linearGradient id="paint27_linear_1_4676" x1="162.861" y1="70.2079" x2="157.05" y2="76.4918" gradientUnits="userSpaceOnUse">
<stop offset="0.0200484" stop-color="#C29217"/>
<stop offset="0.389877" stop-color="#FFE605" stop-opacity="0.742865"/>
<stop offset="0.666667" stop-color="#C29217"/>
<stop offset="0.855158" stop-color="#FFE600"/>
<stop offset="1" stop-color="#FFE712" stop-opacity="0"/>
</linearGradient>
<linearGradient id="paint28_linear_1_4676" x1="161.561" y1="66.2594" x2="155.75" y2="72.5434" gradientUnits="userSpaceOnUse">
<stop offset="0.0200484" stop-color="#C29217"/>
<stop offset="0.389877" stop-color="#FFE605" stop-opacity="0.742865"/>
<stop offset="0.666667" stop-color="#C29217"/>
<stop offset="0.855158" stop-color="#FFE600"/>
<stop offset="1" stop-color="#FFE712" stop-opacity="0"/>
</linearGradient>
<linearGradient id="paint29_linear_1_4676" x1="159.095" y1="63.2575" x2="153.283" y2="69.5414" gradientUnits="userSpaceOnUse">
<stop offset="0.0200484" stop-color="#C29217"/>
<stop offset="0.389877" stop-color="#FFE605" stop-opacity="0.742865"/>
<stop offset="0.666667" stop-color="#C29217"/>
<stop offset="0.855158" stop-color="#FFE600"/>
<stop offset="1" stop-color="#FFE712" stop-opacity="0"/>
</linearGradient>
<linearGradient id="paint30_linear_1_4676" x1="157.279" y1="59.503" x2="151.468" y2="65.787" gradientUnits="userSpaceOnUse">
<stop offset="0.0200484" stop-color="#C29217"/>
<stop offset="0.389877" stop-color="#FFE605" stop-opacity="0.742865"/>
<stop offset="0.666667" stop-color="#C29217"/>
<stop offset="0.855158" stop-color="#FFE600"/>
<stop offset="1" stop-color="#FFE712" stop-opacity="0"/>
</linearGradient>
<linearGradient id="paint31_linear_1_4676" x1="155.682" y1="56.19" x2="149.871" y2="62.474" gradientUnits="userSpaceOnUse">
<stop offset="0.0200484" stop-color="#C29217"/>
<stop offset="0.389877" stop-color="#FFE605" stop-opacity="0.742865"/>
<stop offset="0.666667" stop-color="#C29217"/>
<stop offset="0.855158" stop-color="#FFE600"/>
<stop offset="1" stop-color="#FFE712" stop-opacity="0"/>
</linearGradient>
<linearGradient id="paint32_linear_1_4676" x1="37.7659" y1="64.5072" x2="46.7879" y2="65.4876" gradientUnits="userSpaceOnUse">
<stop offset="0.0200484" stop-color="#C29217"/>
<stop offset="0.389877" stop-color="#FFE605" stop-opacity="0.742865"/>
<stop offset="0.666667" stop-color="#C29217"/>
<stop offset="0.855158" stop-color="#FFE600"/>
<stop offset="1" stop-color="#FFE712" stop-opacity="0"/>
</linearGradient>
<linearGradient id="paint33_linear_1_4676" x1="36.8124" y1="69.338" x2="45.5012" y2="68.3407" gradientUnits="userSpaceOnUse">
<stop offset="0.0200484" stop-color="#C29217"/>
<stop offset="0.389877" stop-color="#FFE605" stop-opacity="0.742865"/>
<stop offset="0.666667" stop-color="#C29217"/>
<stop offset="0.855158" stop-color="#FFE600"/>
<stop offset="1" stop-color="#FFE712" stop-opacity="0"/>
</linearGradient>
<linearGradient id="paint34_linear_1_4676" x1="34.973" y1="73.8575" x2="43.5232" y2="72.0675" gradientUnits="userSpaceOnUse">
<stop offset="0.0200484" stop-color="#C29217"/>
<stop offset="0.389877" stop-color="#FFE605" stop-opacity="0.742865"/>
<stop offset="0.666667" stop-color="#C29217"/>
<stop offset="0.855158" stop-color="#FFE600"/>
<stop offset="1" stop-color="#FFE712" stop-opacity="0"/>
</linearGradient>
<linearGradient id="paint35_linear_1_4676" x1="33.6998" y1="78.6632" x2="41.9239" y2="75.7885" gradientUnits="userSpaceOnUse">
<stop offset="0.0200484" stop-color="#C29217"/>
<stop offset="0.389877" stop-color="#FFE605" stop-opacity="0.742865"/>
<stop offset="0.666667" stop-color="#C29217"/>
<stop offset="0.855158" stop-color="#FFE600"/>
<stop offset="1" stop-color="#FFE712" stop-opacity="0"/>
</linearGradient>
<linearGradient id="paint36_linear_1_4676" x1="32.9019" y1="82.7419" x2="41.126" y2="79.8672" gradientUnits="userSpaceOnUse">
<stop offset="0.0200484" stop-color="#C29217"/>
<stop offset="0.389877" stop-color="#FFE605" stop-opacity="0.742865"/>
<stop offset="0.666667" stop-color="#C29217"/>
<stop offset="0.855158" stop-color="#FFE600"/>
<stop offset="1" stop-color="#FFE712" stop-opacity="0"/>
</linearGradient>
<linearGradient id="paint37_linear_1_4676" x1="32.1031" y1="87.3293" x2="40.3272" y2="84.4545" gradientUnits="userSpaceOnUse">
<stop offset="0.0200484" stop-color="#C29217"/>
<stop offset="0.389877" stop-color="#FFE605" stop-opacity="0.742865"/>
<stop offset="0.666667" stop-color="#C29217"/>
<stop offset="0.855158" stop-color="#FFE600"/>
<stop offset="1" stop-color="#FFE712" stop-opacity="0"/>
</linearGradient>
<linearGradient id="paint38_linear_1_4676" x1="31.5728" y1="91.6623" x2="39.7969" y2="88.7876" gradientUnits="userSpaceOnUse">
<stop offset="0.0200484" stop-color="#C29217"/>
<stop offset="0.389877" stop-color="#FFE605" stop-opacity="0.742865"/>
<stop offset="0.666667" stop-color="#C29217"/>
<stop offset="0.855158" stop-color="#FFE600"/>
<stop offset="1" stop-color="#FFE712" stop-opacity="0"/>
</linearGradient>
<linearGradient id="paint39_linear_1_4676" x1="31.5728" y1="95.741" x2="39.7969" y2="92.8663" gradientUnits="userSpaceOnUse">
<stop offset="0.0200484" stop-color="#C29217"/>
<stop offset="0.389877" stop-color="#FFE605" stop-opacity="0.742865"/>
<stop offset="0.666667" stop-color="#C29217"/>
<stop offset="0.855158" stop-color="#FFE600"/>
<stop offset="1" stop-color="#FFE712" stop-opacity="0"/>
</linearGradient>
<linearGradient id="paint40_linear_1_4676" x1="31.94" y1="99.3832" x2="40.1641" y2="96.5085" gradientUnits="userSpaceOnUse">
<stop offset="0.0200484" stop-color="#C29217"/>
<stop offset="0.389877" stop-color="#FFE605" stop-opacity="0.742865"/>
<stop offset="0.666667" stop-color="#C29217"/>
<stop offset="0.855158" stop-color="#FFE600"/>
<stop offset="1" stop-color="#FFE712" stop-opacity="0"/>
</linearGradient>
<linearGradient id="paint41_linear_1_4676" x1="31.8384" y1="103.897" x2="40.0625" y2="101.022" gradientUnits="userSpaceOnUse">
<stop offset="0.0200484" stop-color="#C29217"/>
<stop offset="0.389877" stop-color="#FFE605" stop-opacity="0.742865"/>
<stop offset="0.666667" stop-color="#C29217"/>
<stop offset="0.855158" stop-color="#FFE600"/>
<stop offset="1" stop-color="#FFE712" stop-opacity="0"/>
</linearGradient>
<linearGradient id="paint42_linear_1_4676" x1="85.8177" y1="29.2247" x2="88.1132" y2="37.3248" gradientUnits="userSpaceOnUse">
<stop offset="0.0200484" stop-color="#C29217"/>
<stop offset="0.389877" stop-color="#FFE605" stop-opacity="0.742865"/>
<stop offset="0.666667" stop-color="#C29217"/>
<stop offset="0.855158" stop-color="#FFE600"/>
<stop offset="1" stop-color="#FFE712" stop-opacity="0"/>
</linearGradient>
<linearGradient id="paint43_linear_1_4676" x1="80.8579" y1="30.5845" x2="84.7504" y2="38.1059" gradientUnits="userSpaceOnUse">
<stop offset="0.0200484" stop-color="#C29217"/>
<stop offset="0.389877" stop-color="#FFE605" stop-opacity="0.742865"/>
<stop offset="0.666667" stop-color="#C29217"/>
<stop offset="0.855158" stop-color="#FFE600"/>
<stop offset="1" stop-color="#FFE712" stop-opacity="0"/>
</linearGradient>
<linearGradient id="paint44_linear_1_4676" x1="76.165" y1="31.6696" x2="80.8601" y2="38.7585" gradientUnits="userSpaceOnUse">
<stop offset="0.0200484" stop-color="#C29217"/>
<stop offset="0.389877" stop-color="#FFE605" stop-opacity="0.742865"/>
<stop offset="0.666667" stop-color="#C29217"/>
<stop offset="0.855158" stop-color="#FFE600"/>
<stop offset="1" stop-color="#FFE712" stop-opacity="0"/>
</linearGradient>
<linearGradient id="paint45_linear_1_4676" x1="71.5578" y1="34.0358" x2="77.3431" y2="40.3415" gradientUnits="userSpaceOnUse">
<stop offset="0.0200484" stop-color="#C29217"/>
<stop offset="0.389877" stop-color="#FFE605" stop-opacity="0.742865"/>
<stop offset="0.666667" stop-color="#C29217"/>
<stop offset="0.855158" stop-color="#FFE600"/>
<stop offset="1" stop-color="#FFE712" stop-opacity="0"/>
</linearGradient>
<linearGradient id="paint46_linear_1_4676" x1="66.9451" y1="36.1538" x2="73.3778" y2="41.8536" gradientUnits="userSpaceOnUse">
<stop offset="0.0200484" stop-color="#C29217"/>
<stop offset="0.389877" stop-color="#FFE605" stop-opacity="0.742865"/>
<stop offset="0.666667" stop-color="#C29217"/>
<stop offset="0.855158" stop-color="#FFE600"/>
<stop offset="1" stop-color="#FFE712" stop-opacity="0"/>
</linearGradient>
<linearGradient id="paint47_linear_1_4676" x1="62.4637" y1="37.8997" x2="69.3855" y2="43.0447" gradientUnits="userSpaceOnUse">
<stop offset="0.0200484" stop-color="#C29217"/>
<stop offset="0.389877" stop-color="#FFE605" stop-opacity="0.742865"/>
<stop offset="0.666667" stop-color="#C29217"/>
<stop offset="0.855158" stop-color="#FFE600"/>
<stop offset="1" stop-color="#FFE712" stop-opacity="0"/>
</linearGradient>
<linearGradient id="paint48_linear_1_4676" x1="58.7767" y1="40.2055" x2="65.729" y2="45.3124" gradientUnits="userSpaceOnUse">
<stop offset="0.0200484" stop-color="#C29217"/>
<stop offset="0.389877" stop-color="#FFE605" stop-opacity="0.742865"/>
<stop offset="0.666667" stop-color="#C29217"/>
<stop offset="0.855158" stop-color="#FFE600"/>
<stop offset="1" stop-color="#FFE712" stop-opacity="0"/>
</linearGradient>
<linearGradient id="paint49_linear_1_4676" x1="54.5847" y1="42.9231" x2="62.0071" y2="47.3783" gradientUnits="userSpaceOnUse">
<stop offset="0.0200484" stop-color="#C29217"/>
<stop offset="0.389877" stop-color="#FFE605" stop-opacity="0.742865"/>
<stop offset="0.666667" stop-color="#C29217"/>
<stop offset="0.855158" stop-color="#FFE600"/>
<stop offset="1" stop-color="#FFE712" stop-opacity="0"/>
</linearGradient>
<linearGradient id="paint50_linear_1_4676" x1="51.3972" y1="45.9817" x2="58.8196" y2="50.4369" gradientUnits="userSpaceOnUse">
<stop offset="0.0200484" stop-color="#C29217"/>
<stop offset="0.389877" stop-color="#FFE605" stop-opacity="0.742865"/>
<stop offset="0.666667" stop-color="#C29217"/>
<stop offset="0.855158" stop-color="#FFE600"/>
<stop offset="1" stop-color="#FFE712" stop-opacity="0"/>
</linearGradient>
<linearGradient id="paint51_linear_1_4676" x1="48.4724" y1="49.2948" x2="55.8948" y2="53.7501" gradientUnits="userSpaceOnUse">
<stop offset="0.0200484" stop-color="#C29217"/>
<stop offset="0.389877" stop-color="#FFE605" stop-opacity="0.742865"/>
<stop offset="0.666667" stop-color="#C29217"/>
<stop offset="0.855158" stop-color="#FFE600"/>
<stop offset="1" stop-color="#FFE712" stop-opacity="0"/>
</linearGradient>
<linearGradient id="paint52_linear_1_4676" x1="46.3484" y1="52.6092" x2="53.7708" y2="57.0644" gradientUnits="userSpaceOnUse">
<stop offset="0.0200484" stop-color="#C29217"/>
<stop offset="0.389877" stop-color="#FFE605" stop-opacity="0.742865"/>
<stop offset="0.666667" stop-color="#C29217"/>
<stop offset="0.855158" stop-color="#FFE600"/>
<stop offset="1" stop-color="#FFE712" stop-opacity="0"/>
</linearGradient>
<linearGradient id="paint53_linear_1_4676" x1="43.6358" y1="56.3006" x2="51.5848" y2="59.8184" gradientUnits="userSpaceOnUse">
<stop offset="0.0200484" stop-color="#C29217"/>
<stop offset="0.389877" stop-color="#FFE605" stop-opacity="0.742865"/>
<stop offset="0.666667" stop-color="#C29217"/>
<stop offset="0.855158" stop-color="#FFE600"/>
<stop offset="1" stop-color="#FFE712" stop-opacity="0"/>
</linearGradient>
<linearGradient id="paint54_linear_1_4676" x1="39.7192" y1="59.9759" x2="48.0697" y2="64.3462" gradientUnits="userSpaceOnUse">
<stop offset="0.0200484" stop-color="#C29217"/>
<stop offset="0.389877" stop-color="#FFE605" stop-opacity="0.742865"/>
<stop offset="0.666667" stop-color="#C29217"/>
<stop offset="0.855158" stop-color="#FFE600"/>
<stop offset="1" stop-color="#FFE712" stop-opacity="0"/>
</linearGradient>
<linearGradient id="paint55_linear_1_4676" x1="98.6811" y1="105" x2="98.6811" y2="178.137" gradientUnits="userSpaceOnUse">
<stop stop-color="#331E19"/>
<stop offset="0.760417" stop-color="#9D510A" stop-opacity="0.97"/>
</linearGradient>
<linearGradient id="paint56_linear_1_4676" x1="98.854" y1="114.416" x2="98.854" y2="179.411" gradientUnits="userSpaceOnUse">
<stop stop-color="#2DA304"/>
<stop offset="1" stop-color="#55B533" stop-opacity="0"/>
</linearGradient>
</defs>
</svg>
