<svg width="31" height="31" viewBox="0 0 31 31" fill="none" xmlns="http://www.w3.org/2000/svg">
<g clip-path="url(#clip0_2007_933)">
<path d="M22.8914 29.4538H7.89136H1.32886C1.32886 29.4538 1.97573 26.06 2.26636 24.7663C2.46323 23.9038 3.20386 21.9538 10.7039 21.0163C10.7039 21.0163 11.6414 23.8288 15.3914 23.8288C19.1414 23.8288 20.0789 21.0163 20.0789 21.0163C27.5789 21.9538 28.3195 23.8475 28.5164 24.7663C28.7882 26.06 29.4539 29.4538 29.4539 29.4538H22.8914Z" fill="#34A853"/>
<path d="M21.9539 7.8913H21.0164H9.76636H8.82886C8.82886 4.26317 11.7632 1.3288 15.3914 1.3288C19.0195 1.3288 21.9539 4.26317 21.9539 7.8913Z" fill="#34A853"/>
<path d="M21.0164 7.8913V10.7038C21.0164 14.3319 18.2039 17.2663 15.3914 17.2663C12.5789 17.2663 9.76636 14.3319 9.76636 10.7038V7.8913H21.0164Z" fill="#FE724C"/>
<path d="M1.32886 29.4538C1.32886 29.4538 1.97292 26.0591 2.26636 24.7663C2.46136 23.9066 3.20386 21.9538 10.7039 21.0163C10.7039 21.0163 11.6414 23.8288 15.3914 23.8288C19.1414 23.8288 20.0789 21.0163 20.0789 21.0163C27.5789 21.9538 28.3214 23.8485 28.5164 24.7663C28.792 26.0638 29.4539 29.4538 29.4539 29.4538M9.76636 10.7038C9.76636 14.3282 12.5789 17.2663 15.3914 17.2663C18.2039 17.2663 21.0164 14.3282 21.0164 10.7038M7.89136 28.5163V29.4538M22.8914 28.5163V29.4538M6.01636 7.8913H21.9539C21.9539 4.26692 19.0157 1.3288 15.3914 1.3288C11.767 1.3288 8.82886 4.26692 8.82886 7.8913" stroke="black" stroke-width="2" stroke-linecap="round" stroke-linejoin="round"/>
</g>
<defs>
<clipPath id="clip0_2007_933">
<rect width="30" height="30" fill="white" transform="translate(0.391357 0.391296)"/>
</clipPath>
</defs>
</svg>
