<svg width="207" height="300" viewBox="0 0 207 300" fill="none" xmlns="http://www.w3.org/2000/svg">
<g clip-path="url(#clip0_1_8142)">
<path d="M120.892 246.229C114.681 241.063 105.681 238.1 96.1986 238.1L95.8329 238.101C89.5873 238.103 83.4532 236.767 78.0579 234.229L77.4964 233.966L77.9486 233.59C80.3967 231.547 82.4408 229.213 84.0094 226.669C82.8954 227.507 81.5666 228.137 80.1173 228.515C78.6679 228.892 77.1333 229.008 75.6222 228.855C74.0268 228.701 72.4951 228.258 71.1422 227.559C69.7892 226.861 68.6501 225.924 67.8101 224.819C64.4961 220.482 60.5457 214.329 60.5457 209.641C60.5508 205.679 61.5795 201.761 63.5661 198.137C65.5528 194.513 68.4538 191.262 72.0842 188.593C74.3826 186.921 76.2185 184.878 77.4721 182.596C78.7256 180.314 79.3688 177.845 79.3596 175.349L79.3578 174.993C79.3572 171.707 79.8551 168.434 80.8404 165.245L80.9405 164.923L81.3512 164.935C84 165.007 86.6502 164.828 89.2471 164.401C86.8112 164.16 84.4283 163.649 82.1658 162.882L81.724 162.738L81.8739 162.373C92.2115 157.211 115.546 159.884 129.091 134.891C140.073 114.626 178.823 152.881 178.823 174.993C178.823 177.25 176.055 180.231 178.127 181.723C200.532 197.844 185.073 208.196 180.199 218.612C179.043 221.084 181.55 223.797 181.55 226.471C181.55 226.924 181.536 227.393 181.507 227.863L181.464 228.585L180.717 228.184C179.239 227.403 177.869 226.497 176.631 225.481C177.916 227.866 178.521 230.453 178.403 233.051C178.285 235.649 177.445 238.193 175.947 240.495C173.599 244.07 171.327 246.628 169.195 248.1C162.366 252.814 153.562 255.245 144.583 254.897C135.604 254.55 127.13 251.449 120.892 246.229H120.892Z" fill="#4BA26A"/>
<path d="M158.403 300C158.555 300 158.703 299.955 158.818 299.874C158.933 299.794 159.009 299.682 159.03 299.56C159.057 299.407 161.698 284.047 159.326 263.631C157.136 244.777 150.102 217.621 129.03 195.318C128.98 195.264 128.917 195.219 128.845 195.185C128.773 195.152 128.693 195.129 128.61 195.12C128.528 195.111 128.444 195.116 128.363 195.133C128.282 195.15 128.207 195.18 128.14 195.22C128.074 195.261 128.018 195.312 127.976 195.37C127.935 195.428 127.907 195.493 127.896 195.559C127.885 195.626 127.89 195.694 127.912 195.759C127.933 195.824 127.97 195.885 128.021 195.938C148.91 218.049 155.888 245.006 158.063 263.727C160.421 284.023 157.8 299.264 157.774 299.416C157.761 299.489 157.768 299.563 157.794 299.633C157.819 299.703 157.864 299.768 157.923 299.824C157.983 299.879 158.056 299.923 158.139 299.954C158.222 299.984 158.312 300 158.403 300V300Z" fill="black"/>
<path d="M141.207 226.777C141.341 226.778 141.472 226.743 141.58 226.68C141.689 226.616 141.77 226.527 141.811 226.424C141.853 226.321 141.853 226.21 141.811 226.108C141.77 226.005 141.689 225.915 141.581 225.852C135.577 222.574 129.091 219.911 122.272 217.924C111.618 214.779 95.4185 211.927 78.7411 216.208C78.6615 216.228 78.5877 216.261 78.5238 216.304C78.4599 216.347 78.4073 216.4 78.3689 216.46C78.3304 216.52 78.307 216.585 78.2999 216.652C78.2928 216.719 78.3022 216.787 78.3275 216.851C78.3528 216.915 78.3935 216.975 78.4474 217.026C78.5012 217.077 78.5671 217.12 78.6413 217.151C78.7155 217.181 78.7965 217.2 78.8796 217.206C78.9628 217.211 79.0465 217.204 79.126 217.183C95.4617 212.99 111.368 215.795 121.835 218.885C128.545 220.838 134.927 223.456 140.835 226.68C140.943 226.743 141.073 226.778 141.207 226.777V226.777Z" fill="black"/>
<path d="M170.252 168.435C170.262 168.327 170.229 168.219 170.158 168.128C170.088 168.036 169.983 167.964 169.859 167.924C169.734 167.883 169.597 167.875 169.467 167.901C169.337 167.927 169.22 167.985 169.134 168.068C164.648 172.661 160.888 177.687 157.94 183.029C153.282 191.372 148.589 204.198 152.682 217.922C152.701 217.988 152.737 218.049 152.786 218.104C152.835 218.158 152.896 218.204 152.968 218.24C153.039 218.275 153.118 218.298 153.2 218.309C153.282 218.319 153.367 218.317 153.448 218.301C153.529 218.285 153.605 218.257 153.673 218.217C153.74 218.177 153.797 218.128 153.841 218.07C153.884 218.013 153.913 217.949 153.926 217.883C153.939 217.816 153.936 217.748 153.916 217.683C149.907 204.24 154.521 191.647 159.097 183.45C161.995 178.193 165.693 173.248 170.104 168.727C170.191 168.645 170.243 168.543 170.252 168.435V168.435Z" fill="black"/>
<path d="M75.413 162.009C41.0523 162.009 13.0978 139.463 13.0978 111.751C13.0978 84.0387 41.0523 61.4932 75.413 61.4932C109.774 61.4932 137.728 84.0387 137.728 111.751C137.728 139.463 109.774 162.009 75.413 162.009ZM75.413 62.4866C41.7316 62.4866 14.3295 84.5865 14.3295 111.751C14.3295 138.915 41.7315 161.015 75.413 161.015C109.095 161.015 136.497 138.915 136.497 111.751C136.497 84.5865 109.094 62.4866 75.413 62.4866Z" fill="#4BA26A"/>
<path d="M68.1681 138.551C67.1184 138.551 66.0831 138.354 65.1442 137.976C64.2053 137.597 63.3887 137.047 62.7591 136.37L46.1748 118.535C45.642 117.962 45.2544 117.31 45.034 116.617C44.8137 115.923 44.7649 115.201 44.8905 114.492C45.0161 113.783 45.3136 113.101 45.7661 112.485C46.2185 111.869 46.817 111.33 47.5274 110.901C48.2378 110.471 49.0462 110.158 49.9064 109.981C50.7666 109.803 51.6618 109.764 52.5409 109.865C53.4199 109.966 54.2656 110.206 55.0297 110.571C55.7937 110.936 56.4612 111.419 56.994 111.992L67.844 123.658L95.7109 89.9463C96.7063 88.7438 98.2529 87.9092 100.011 87.6261C101.769 87.343 103.594 87.6345 105.086 88.4365C106.578 89.2385 107.613 90.4854 107.965 91.903C108.318 93.3207 107.957 94.7931 106.964 95.9966L73.7951 136.123C73.1951 136.848 72.3881 137.448 71.4418 137.87C70.4955 138.292 69.4374 138.525 68.3563 138.55C68.2936 138.551 68.2309 138.551 68.1681 138.551Z" fill="#4BA26A"/>
<path d="M179.559 39.9723C179.785 38.7143 178.152 37.4812 175.909 37.2181C173.667 36.955 171.665 37.7615 171.439 39.0195C171.212 40.2775 172.845 41.5107 175.088 41.7738C177.33 42.0369 179.332 41.2304 179.559 39.9723Z" fill="#4BA26A"/>
<path d="M206.255 37.8715C206.482 36.6135 204.848 35.3804 202.606 35.1173C200.364 34.8542 198.362 35.6607 198.135 36.9187C197.908 38.1767 199.542 39.4098 201.784 39.6729C204.026 39.9361 206.028 39.1295 206.255 37.8715Z" fill="black"/>
<path d="M172.248 22.5414C172.475 21.2834 170.841 20.0503 168.599 19.7872C166.357 19.5241 164.355 20.3306 164.128 21.5886C163.901 22.8466 165.535 24.0798 167.777 24.3429C170.019 24.606 172.021 23.7994 172.248 22.5414Z" fill="#4BA26A"/>
<path d="M160.648 15.4013C160.659 14.2464 159.86 13.3052 158.864 13.2991C157.868 13.2931 157.051 14.2244 157.04 15.3793C157.03 16.5342 157.828 17.4754 158.824 17.4815C159.821 17.4875 160.637 16.5562 160.648 15.4013Z" fill="#4BA26A"/>
<path d="M156.714 2.10222C156.725 0.94731 155.926 0.00613754 154.93 6.22587e-05C153.934 -0.00601302 153.117 0.925309 153.106 2.08022C153.096 3.23514 153.894 4.17631 154.891 4.18239C155.887 4.18846 156.703 3.25714 156.714 2.10222Z" fill="black"/>
<path d="M187.305 25.5075C187.316 24.3526 186.517 23.4114 185.521 23.4053C184.525 23.3993 183.709 24.3306 183.698 25.4855C183.687 26.6404 184.486 27.5816 185.482 27.5877C186.478 27.5937 187.294 26.6624 187.305 25.5075Z" fill="#4BA26A"/>
<path d="M174.404 30.7026C174.415 29.5477 173.616 28.6065 172.62 28.6004C171.624 28.5944 170.808 29.5257 170.797 30.6806C170.786 31.8355 171.585 32.7767 172.581 32.7827C173.577 32.7888 174.394 31.8575 174.404 30.7026Z" fill="#4BA26A"/>
<path d="M192.363 40.3042C192.374 39.1492 191.575 38.2081 190.579 38.202C189.583 38.1959 188.766 39.1272 188.756 40.2822C188.745 41.4371 189.544 42.3782 190.54 42.3843C191.536 42.3904 192.352 41.4591 192.363 40.3042Z" fill="black"/>
<path d="M26.4522 195.857C26.6791 194.599 25.0454 193.365 22.8031 193.102C20.5608 192.839 18.5591 193.646 18.3322 194.904C18.1052 196.162 19.739 197.395 21.9812 197.658C24.2235 197.921 26.2252 197.115 26.4522 195.857Z" fill="#4BA26A"/>
<path d="M53.1489 193.756C53.3759 192.498 51.7422 191.265 49.4999 191.002C47.2576 190.738 45.2559 191.545 45.029 192.803C44.802 194.061 46.4358 195.294 48.678 195.557C50.9203 195.82 52.922 195.014 53.1489 193.756Z" fill="black"/>
<path d="M19.1419 178.425C19.3688 177.167 17.7351 175.934 15.4928 175.671C13.2506 175.408 11.2488 176.215 11.0219 177.473C10.7949 178.731 12.4287 179.964 14.671 180.227C16.9132 180.49 18.9149 179.683 19.1419 178.425Z" fill="#4BA26A"/>
<path d="M7.5415 171.286C7.55233 170.131 6.75355 169.19 5.75738 169.183C4.76121 169.177 3.94486 170.109 3.93404 171.264C3.92321 172.418 4.722 173.36 5.71817 173.366C6.71434 173.372 7.53067 172.44 7.5415 171.286Z" fill="#4BA26A"/>
<path d="M3.60757 157.987C3.61836 156.832 2.81956 155.89 1.82339 155.884C0.827219 155.878 0.0109184 156.81 0.000128198 157.965C-0.010662 159.119 0.788144 160.061 1.78431 160.067C2.78048 160.073 3.59678 159.141 3.60757 157.987Z" fill="black"/>
<path d="M34.1991 181.392C34.2099 180.237 33.4111 179.296 32.4149 179.29C31.4188 179.284 30.6025 180.215 30.5916 181.37C30.5808 182.525 31.3796 183.466 32.3757 183.472C33.3719 183.478 34.1882 182.547 34.1991 181.392Z" fill="#4BA26A"/>
<path d="M21.2981 186.587C21.3089 185.432 20.5101 184.491 19.514 184.485C18.5178 184.479 17.7015 185.41 17.6906 186.565C17.6798 187.72 18.4786 188.661 19.4748 188.667C20.4709 188.673 21.2873 187.742 21.2981 186.587Z" fill="#4BA26A"/>
<path d="M39.2567 196.189C39.2675 195.034 38.4687 194.093 37.4726 194.086C36.4764 194.08 35.6601 195.012 35.6492 196.167C35.6384 197.322 36.4372 198.263 37.4333 198.269C38.4295 198.275 39.2459 197.344 39.2567 196.189Z" fill="black"/>
</g>
<defs>
<clipPath id="clip0_1_8142">
<rect width="207" height="300" fill="white"/>
</clipPath>
</defs>
</svg>
