<svg width="31" height="31" viewBox="0 0 31 31" fill="none" xmlns="http://www.w3.org/2000/svg">
<g clip-path="url(#clip0_2007_944)">
<path d="M22.6688 19.274C22.6688 19.274 24.3563 26.1187 24.8438 27.9834C25.3032 29.7365 23.897 29.6897 23.0345 29.0906C22.0688 28.4147 15.3938 23.6428 15.3938 23.6428C15.3938 23.6428 8.66259 28.4522 7.73446 29.099C6.93759 29.6522 5.45634 29.774 6.05634 28.0031C6.48759 26.5125 8.59696 19.274 8.59696 19.274C8.59696 19.274 2.43759 14.7647 1.78134 14.2584C1.12509 13.7615 1.09696 12.3553 2.27821 12.2531C3.45009 12.1584 11.0251 11.5125 11.0251 11.5125C11.0251 11.5125 13.9595 3.38435 14.3532 2.30529C14.7376 1.02092 16.0126 0.992792 16.5282 2.28654C16.9501 3.33654 20.2407 11.5125 20.2407 11.5125C20.2407 11.5125 27.3938 12.149 28.472 12.2428C29.6532 12.3178 29.747 13.7812 28.9782 14.3719C28.2188 14.9709 22.6688 19.274 22.6688 19.274Z" fill="#34A853"/>
<path fill-rule="evenodd" clip-rule="evenodd" d="M16.5315 2.2866C16.9534 3.33754 20.2421 11.5135 20.2421 11.5135C20.2421 11.5135 27.3971 12.15 28.4743 12.24C29.6546 12.315 29.7474 13.7785 28.9815 14.3738C28.2174 14.9663 22.6674 19.2732 22.6674 19.2732C22.6674 19.2732 24.354 26.1141 24.8443 27.9779C25.3037 29.7338 23.8946 29.6869 23.0377 29.0879C22.0674 28.4119 15.3924 23.6382 15.3924 23.6382C15.3924 23.6382 8.66492 28.4485 7.73867 29.0953C6.9418 29.6494 5.45398 29.7704 6.05398 28.0041C6.48992 26.5135 8.5993 19.2732 8.5993 19.2732C8.5993 19.2732 2.4343 14.7619 1.77992 14.2585C1.1218 13.756 1.10117 12.3535 2.27492 12.2532C3.45055 12.1538 11.0255 11.5135 11.0255 11.5135C11.0255 11.5135 13.9618 3.3816 14.3565 2.30629C14.739 1.02097 16.013 0.991913 16.5315 2.2866Z" stroke="black" stroke-width="2" stroke-linecap="round" stroke-linejoin="round"/>
</g>
<defs>
<clipPath id="clip0_2007_944">
<rect width="30" height="30" fill="white" transform="translate(0.391296 0.391296)"/>
</clipPath>
</defs>
</svg>
