<svg width="33" height="32" viewBox="0 0 33 32" fill="none" xmlns="http://www.w3.org/2000/svg">
<path d="M16.7826 1C20.6526 1 23.7826 4.13 23.7826 8C23.7826 11.87 20.6526 15 16.7826 15C12.9126 15 9.78259 11.87 9.78259 8C9.78259 4.13 12.9126 1 16.7826 1Z" fill="#34A853"/>
<path d="M5.78259 31H27.7826M16.7826 31V15C12.9166 15 9.78259 11.866 9.78259 8C9.78259 4.134 12.9166 1 16.7826 1C20.6486 1 23.7826 4.134 23.7826 8C23.7826 10.774 22.1696 13.172 19.8296 14.305M19.6166 7.0117C19.3186 6.1577 18.6456 5.4807 17.7966 5.1757" stroke="black" stroke-width="2" stroke-linecap="round" stroke-linejoin="round"/>
</svg>
