<svg width="39" height="40" viewBox="0 0 39 40" fill="none" xmlns="http://www.w3.org/2000/svg">
<path d="M13.6106 0H10.145C6.75962 0 4 2.75965 4 6.14503V9.46622C4 10.124 4.54551 10.6696 5.20333 10.6696C5.86116 10.6696 6.40667 10.124 6.40667 9.46622V6.14503C6.40667 4.07529 8.09131 2.40667 10.145 2.40667H13.6106C14.2684 2.40667 14.8139 1.86116 14.8139 1.20333C14.8139 0.545511 14.2845 0 13.6106 0Z" fill="#068042"/>
<path d="M29.7036 -6.10352e-05H26.238C25.5802 -6.10352e-05 25.0347 0.54545 25.0347 1.20327C25.0347 1.86109 25.5802 2.40661 26.238 2.40661H29.7036C31.7733 2.40661 33.442 4.09128 33.442 6.14496V9.46616C33.442 10.124 33.9875 10.6695 34.6453 10.6695C35.3031 10.6695 35.8487 10.124 35.8487 9.46616V6.14496C35.8647 2.75959 33.105 -6.10352e-05 29.7036 -6.10352e-05Z" fill="#068042"/>
<path d="M13.6106 29.5544H10.145C8.07527 29.5544 6.40667 27.8697 6.40667 25.816V22.4948C6.40667 21.837 5.86116 21.2915 5.20333 21.2915C4.54551 21.2915 4 21.837 4 22.4948V25.816C4 29.2014 6.75962 31.9611 10.145 31.9611H13.6106C14.2684 31.9611 14.8139 31.4316 14.8139 30.7577C14.8139 30.0999 14.2845 29.5544 13.6106 29.5544Z" fill="#068042"/>
<path d="M34.6613 21.2915C34.0034 21.2915 33.4579 21.837 33.4579 22.4948V25.816C33.4579 27.8858 31.7733 29.5544 29.7196 29.5544H26.254C25.5962 29.5544 25.0507 30.0999 25.0507 30.7577C25.0507 31.4156 25.5962 31.9611 26.254 31.9611H29.7196C33.105 31.9611 35.8646 29.2014 35.8646 25.816V22.4948C35.8646 21.821 35.3191 21.2915 34.6613 21.2915Z" fill="#068042"/>
<path d="M28.061 6.04347C29.5606 2.97131 28.2574 20.3376 23.8845 23.294C19.5115 26.2504 14.8226 24.0886 15.7596 21.9019C15.7596 21.9019 26.5615 9.11562 28.061 6.04347Z" fill="#00BE13"/>
<path d="M13.173 12.8501C15.1154 10.5843 27.7373 3.77812 27.7373 5.39666C27.7373 5.39666 18.6732 15.7542 15.1123 21.2576C14.7879 21.7589 14.1748 23.9013 13.8033 25.2689C13.6757 25.7386 13.0599 25.8586 12.7679 25.4691C12.6144 25.2642 12.5589 25.0021 12.6162 24.7526L13.4937 20.9351C10.5801 18.3451 11.2306 15.1159 13.173 12.8501Z" fill="#00BE13"/>
</svg>
